<svg height="504pt" viewBox="0 -26 504.47732 504" width="504pt" xmlns="http://www.w3.org/2000/svg"><path d="m467.480469 248.542969c-3.980469 10.875-10.390625 20.699219-18.742188 28.722656-17.152343 16.691406-41.015625 24.59375-64.738281 21.433594l-64.304688-38.875 9.199219-10.9375 67.167969-79.921875 71.765625 26.207031c6.265625 17.257813 6.140625 36.191406-.347656 53.371094zm0 0" fill="#67b9cc"/><path d="m448.738281 277.265625c-17.152343 16.691406-41.015625 24.59375-64.738281 21.433594l-64.304688-38.875 9.199219-10.9375 21.609375-2.601563s66.90625-14.144531 98.234375 30.980469zm0 0" fill="#2fa8cc"/><path d="m95.457031 305.988281v58.75c0 19.171875-15.539062 34.710938-34.710937 34.710938h-52.066406v-34.710938h34.710937c9.574219-.027343 17.328125-7.78125 17.355469-17.355469v-52.066406zm0 0" fill="#7f8c8d"/><g fill="#3f5c6c"><path d="m8.679688 451.519531c-4.792969 0-8.679688-3.886719-8.679688-8.679687v-121.492188c0-4.792968 3.886719-8.675781 8.679688-8.675781 4.789062 0 8.675781 3.882813 8.675781 8.675781v121.492188c0 4.792968-3.886719 8.679687-8.675781 8.679687zm0 0"/><path d="m498.84375 149.046875-393.40625-146.613281c-17.972656-6.691406-37.96875 2.433594-44.691406 20.394531l-21.175782 56.925781-6.074218 16.316406-9.109375 24.382813-12.105469 32.542969c-3.214844 8.628906-2.871094 18.179687.957031 26.550781 3.828125 8.375 10.824219 14.882813 19.453125 18.097656l7.625 2.847657-1.734375 48.351562c-.128906 3.761719 2.160157 7.183594 5.683594 8.496094l63.351563 23.605468-54.023438-20.117187c-6.039062 17.875 3.21875 37.3125 20.902344 43.882813 17.6875 6.570312 37.390625-2.101563 44.488281-19.582032l11.820313 4.40625c3.527343 1.3125 7.5.222656 9.863281-2.707031l30.375-37.671875 186.914062 69.667969c4.316407 1.609375 9.089844 1.4375 13.277344-.476563 4.1875-1.914062 7.445313-5.414062 9.050781-9.730468l18.179688-48.785157 103.269531-96.328125c2.1875-2.050781 3.164063-5.085937 2.574219-8.03125-.589844-2.941406-2.65625-5.371094-5.464844-6.425781zm0 0"/><path d="m501.734375 163.523438-103.269531 96.324218-374.078125-139.394531 9.109375-24.382813 6.074218-16.316406 21.175782-56.925781c6.722656-17.960937 26.71875-27.085937 44.691406-20.394531l393.40625 146.65625c2.800781 1.058594 4.855469 3.484375 5.445312 6.417968.585938 2.933594-.378906 5.960938-2.554687 8.015626zm0 0"/></g><path d="m24.398438 120.445312 374.054687 139.40625-18.183594 48.789063c-1.605469 4.3125-4.863281 7.8125-9.050781 9.722656-4.183594 1.914063-8.960938 2.085938-13.273438.480469l-325.261718-121.222656c-17.964844-6.695313-27.101563-26.6875-20.40625-44.652344zm0 0" fill="#35495e"/><path d="m378.054688 223.886719c-1.035157 0-2.066407-.191407-3.035157-.554688l-8.132812-3.039062c-2.90625-1.082031-5.011719-3.636719-5.523438-6.695313s.644531-6.15625 3.039063-8.128906c2.390625-1.976562 5.652344-2.523438 8.558594-1.4375l8.132812 3.039062c3.945312 1.457032 6.277344 5.539063 5.53125 9.679688-.75 4.144531-4.359375 7.152344-8.570312 7.136719zm0 0" fill="#67b9cc"/><path d="m345.554688 203.070312c-1.269532 3.398438-4.523438 5.652344-8.15625 5.640626-1.035157-.003907-2.058594-.179688-3.035157-.523438l-300.867187-112.117188 6.074218-16.316406 300.867188 112.121094c4.492188 1.691406 6.777344 6.6875 5.117188 11.195312zm0 0" fill="#67b9cc"/><path d="m130.804688 289.554688-86.496094-32.238282c-3.523438-1.316406-5.8125-4.738281-5.683594-8.496094l1.71875-48.960937 131.039062 48.847656-30.746093 38.183594c-2.371094 2.898437-6.324219 3.96875-9.832031 2.664063zm0 0" fill="#2c3e50"/><path d="m118.992188 285.136719c-7.042969 17.5625-26.800782 26.3125-44.539063 19.722656-17.738281-6.59375-26.992187-26.121094-20.859375-44.023437zm0 0" fill="#95a5a5"/></svg>