<svg width="200" height="200" viewBox="0 0 200 200" fill="none" xmlns="http://www.w3.org/2000/svg">
<circle cx="100" cy="100" r="100" fill="#00A0FC"/>
<path d="M51.8594 115.016C54.3594 115.016 56.3906 114.328 57.9531 112.953C59.5156 111.578 60.3281 109.75 60.3906 107.469H73.0938C73.0625 110.906 72.125 114.062 70.2812 116.938C68.4375 119.781 65.9062 122 62.6875 123.594C59.5 125.156 55.9688 125.938 52.0938 125.938C44.8438 125.938 39.125 123.641 34.9375 119.047C30.75 114.422 28.6562 108.047 28.6562 99.9219V99.0312C28.6562 91.2188 30.7344 84.9844 34.8906 80.3281C39.0469 75.6719 44.75 73.3438 52 73.3438C58.3438 73.3438 63.4219 75.1562 67.2344 78.7812C71.0781 82.375 73.0312 87.1719 73.0938 93.1719H60.3906C60.3281 90.5469 59.5156 88.4219 57.9531 86.7969C56.3906 85.1406 54.3281 84.3125 51.7656 84.3125C48.6094 84.3125 46.2188 85.4688 44.5938 87.7812C43 90.0625 42.2031 93.7812 42.2031 98.9375V100.344C42.2031 105.562 43 109.312 44.5938 111.594C46.1875 113.875 48.6094 115.016 51.8594 115.016ZM108.297 110.984C108.297 109.328 107.469 108.031 105.812 107.094C104.188 106.125 101.562 105.266 97.9375 104.516C85.875 101.984 79.8438 96.8594 79.8438 89.1406C79.8438 84.6406 81.7031 80.8906 85.4219 77.8906C89.1719 74.8594 94.0625 73.3438 100.094 73.3438C106.531 73.3438 111.672 74.8594 115.516 77.8906C119.391 80.9219 121.328 84.8594 121.328 89.7031H107.781C107.781 87.7656 107.156 86.1719 105.906 84.9219C104.656 83.6406 102.703 83 100.047 83C97.7656 83 96 83.5156 94.75 84.5469C93.5 85.5781 92.875 86.8906 92.875 88.4844C92.875 89.9844 93.5781 91.2031 94.9844 92.1406C96.4219 93.0469 98.8281 93.8438 102.203 94.5312C105.578 95.1875 108.422 95.9375 110.734 96.7812C117.891 99.4062 121.469 103.953 121.469 110.422C121.469 115.047 119.484 118.797 115.516 121.672C111.547 124.516 106.422 125.938 100.141 125.938C95.8906 125.938 92.1094 125.188 88.7969 123.688C85.5156 122.156 82.9375 120.078 81.0625 117.453C79.1875 114.797 78.25 111.938 78.25 108.875H91.0938C91.2188 111.281 92.1094 113.125 93.7656 114.406C95.4219 115.688 97.6406 116.328 100.422 116.328C103.016 116.328 104.969 115.844 106.281 114.875C107.625 113.875 108.297 112.578 108.297 110.984ZM157.703 110.984C157.703 109.328 156.875 108.031 155.219 107.094C153.594 106.125 150.969 105.266 147.344 104.516C135.281 101.984 129.25 96.8594 129.25 89.1406C129.25 84.6406 131.109 80.8906 134.828 77.8906C138.578 74.8594 143.469 73.3438 149.5 73.3438C155.938 73.3438 161.078 74.8594 164.922 77.8906C168.797 80.9219 170.734 84.8594 170.734 89.7031H157.188C157.188 87.7656 156.562 86.1719 155.312 84.9219C154.062 83.6406 152.109 83 149.453 83C147.172 83 145.406 83.5156 144.156 84.5469C142.906 85.5781 142.281 86.8906 142.281 88.4844C142.281 89.9844 142.984 91.2031 144.391 92.1406C145.828 93.0469 148.234 93.8438 151.609 94.5312C154.984 95.1875 157.828 95.9375 160.141 96.7812C167.297 99.4062 170.875 103.953 170.875 110.422C170.875 115.047 168.891 118.797 164.922 121.672C160.953 124.516 155.828 125.938 149.547 125.938C145.297 125.938 141.516 125.188 138.203 123.688C134.922 122.156 132.344 120.078 130.469 117.453C128.594 114.797 127.656 111.938 127.656 108.875H140.5C140.625 111.281 141.516 113.125 143.172 114.406C144.828 115.688 147.047 116.328 149.828 116.328C152.422 116.328 154.375 115.844 155.688 114.875C157.031 113.875 157.703 112.578 157.703 110.984Z" fill="white"/>
</svg>
