<svg width="200" height="200" viewBox="0 0 200 200" fill="none" xmlns="http://www.w3.org/2000/svg">
<circle cx="100" cy="100" r="100" fill="#FB6D43"/>
<path d="M53.75 122H44.375V102.5H26.0938V122H16.7188V76.5H26.0938V94.9375H44.375V76.5H53.75V122ZM95.2812 84.0938H81.3438V122H71.9688V84.0938H58.2188V76.5H95.2812V84.0938ZM112.906 76.5L124.594 109.5L136.219 76.5H148.531V122H139.125V109.562L140.062 88.0938L127.781 122H121.344L109.094 88.125L110.031 109.562V122H100.656V76.5H112.906ZM166.094 114.469H186V122H156.719V76.5H166.094V114.469Z" fill="white"/>
</svg>
