<?xml version="1.0"?>
<svg xmlns="http://www.w3.org/2000/svg" viewBox="0 0 64 64" width="512" height="512"><g id="Network-4" data-name="Network"><path d="M21,3H5A2,2,0,0,0,3,5V15a2,2,0,0,0,2,2H21a2,2,0,0,0,2-2V5A2,2,0,0,0,21,3Z" style="fill:#2e88f3"/><rect x="11" y="17" width="4" height="5" style="fill:#808285"/><path d="M59,3H43a2,2,0,0,0-2,2V15a2,2,0,0,0,2,2H59a2,2,0,0,0,2-2V5A2,2,0,0,0,59,3Z" style="fill:#2e88f3"/><rect x="49" y="17" width="4" height="5" style="fill:#808285"/><path d="M21,42H5a2,2,0,0,0-2,2V54a2,2,0,0,0,2,2H21a2,2,0,0,0,2-2V44A2,2,0,0,0,21,42Z" style="fill:#006df0"/><rect x="11" y="56" width="4" height="5" style="fill:#808285"/><path d="M59,42H43a2,2,0,0,0-2,2V54a2,2,0,0,0,2,2H59a2,2,0,0,0,2-2V44A2,2,0,0,0,59,42Z" style="fill:#006df0"/><rect x="49" y="56" width="4" height="5" style="fill:#808285"/><circle cx="32" cy="53" r="2" style="fill:#ffd62e"/><circle cx="32" cy="11" r="2" style="fill:#ffd62e"/><rect x="11" y="27" width="42" height="10" rx="2" style="fill:#a7a9ac"/><rect x="35" y="30" width="14" height="4" style="fill:#cdfc5f"/><path d="M5,42a2,2,0,0,0-2,2V54a1.994,1.994,0,0,0,.586,1.414L17,42Z" style="fill:#1c7df2"/><path d="M43,42a2,2,0,0,0-2,2V54a1.994,1.994,0,0,0,.586,1.414L55,42Z" style="fill:#1c7df2"/><path d="M43,3a2,2,0,0,0-2,2V15a1.994,1.994,0,0,0,.586,1.414L55,3Z" style="fill:#4695f4"/><path d="M5,3A2,2,0,0,0,3,5V15a1.994,1.994,0,0,0,.586,1.414L17,3Z" style="fill:#4695f4"/><rect x="12" y="13" width="2" height="2" style="fill:#f1f2f2"/><rect x="15" y="13" width="2" height="2" style="fill:#f1f2f2"/><rect x="9" y="13" width="2" height="2" style="fill:#f1f2f2"/><rect x="50" y="13" width="2" height="2" style="fill:#f1f2f2"/><rect x="53" y="13" width="2" height="2" style="fill:#f1f2f2"/><rect x="47" y="13" width="2" height="2" style="fill:#f1f2f2"/><rect x="12" y="52" width="2" height="2" style="fill:#f1f2f2"/><rect x="15" y="52" width="2" height="2" style="fill:#f1f2f2"/><rect x="9" y="52" width="2" height="2" style="fill:#f1f2f2"/><rect x="50" y="52" width="2" height="2" style="fill:#f1f2f2"/><rect x="53" y="52" width="2" height="2" style="fill:#f1f2f2"/><rect x="47" y="52" width="2" height="2" style="fill:#f1f2f2"/><path d="M33,50.184V39H31V50.184A3,3,0,0,0,29.184,52H25v2h4.184a2.982,2.982,0,0,0,5.632,0H39V52H34.816A3,3,0,0,0,33,50.184ZM32,54a1,1,0,1,1,1-1A1,1,0,0,1,32,54Z" style="fill:#006df0"/><path d="M31,13.816V25h2V13.816A3,3,0,0,0,34.816,12H39V10H34.816a2.982,2.982,0,0,0-5.632,0H25v2h4.184A3,3,0,0,0,31,13.816ZM32,10a1,1,0,1,1-1,1A1,1,0,0,1,32,10Z" style="fill:#006df0"/><rect x="14" y="33" width="2" height="2" style="fill:#ffcd00"/><rect x="17" y="33" width="2" height="2" style="fill:#ffcd00"/><rect x="20" y="33" width="2" height="2" style="fill:#ffcd00"/><rect x="23" y="33" width="2" height="2" style="fill:#ffcd00"/><rect x="14" y="29" width="2" height="2" style="fill:#ffcd00"/><rect x="17" y="29" width="2" height="2" style="fill:#ffcd00"/><rect x="20" y="29" width="2" height="2" style="fill:#ffcd00"/><rect x="23" y="29" width="2" height="2" style="fill:#ffcd00"/><rect x="26" y="33" width="2" height="2" style="fill:#ffcd00"/><rect x="26" y="29" width="2" height="2" style="fill:#ffcd00"/><rect x="29" y="33" width="2" height="2" style="fill:#ffcd00"/><rect x="29" y="29" width="2" height="2" style="fill:#ffcd00"/><rect x="8" y="20" width="10" height="2" style="fill:#6d6e71"/><rect x="46" y="20" width="10" height="2" style="fill:#6d6e71"/><rect x="8" y="59" width="10" height="2" style="fill:#6d6e71"/><rect x="46" y="59" width="10" height="2" style="fill:#6d6e71"/></g></svg>
