<?xml version="1.0" encoding="UTF-8"?>
<!DOCTYPE svg PUBLIC "-//W3C//DTD SVG 1.1//EN" "http://www.w3.org/Graphics/SVG/1.1/DTD/svg11.dtd">
<!-- Creator: CorelDRAW X8 -->
<svg xmlns="http://www.w3.org/2000/svg" xml:space="preserve" width="94.6198mm" height="15.5294mm" version="1.1" style="shape-rendering:geometricPrecision; text-rendering:geometricPrecision; image-rendering:optimizeQuality; fill-rule:evenodd; clip-rule:evenodd"
viewBox="0 0 9462 1553"
 xmlns:xlink="http://www.w3.org/1999/xlink">
 <defs>
  <style type="text/css">
   <![CDATA[
    .str0 {stroke:#373435;stroke-width:17.64}
    .str2 {stroke:#848688;stroke-width:7.62}
    .str1 {stroke:#373435;stroke-width:7.62}
    .fil1 {fill:#373435}
    .fil4 {fill:#00AFEF}
    .fil3 {fill:#848688;fill-rule:nonzero}
    .fil2 {fill:#373435;fill-rule:nonzero}
    .fil0 {fill:#A8CF45;fill-rule:nonzero}
   ]]>
  </style>
 </defs>
 <g id="Capa_x0020_1">
  <metadata id="CorelCorpID_0Corel-Layer"/>
  <g id="_2786297062608">
   <path class="fil0" d="M9258 580c-29,-19 -50,-40 -61,-64 -11,-24 -17,-58 -17,-101l0 -173c-1,-32 -3,-52 -5,-63 -3,-10 -10,-18 -21,-25 -16,-10 -44,-14 -86,-14l-17 0 0 -140 42 0c79,0 131,1 158,5 27,3 50,11 71,25 23,15 40,35 50,60 11,26 16,59 16,101l0 201c0,37 5,65 16,82 12,18 31,30 58,36l0 139c-27,7 -46,18 -58,36 -11,18 -16,45 -16,83l0 201c0,42 -5,75 -16,100 -10,26 -27,46 -50,61 -21,13 -42,22 -65,25 -22,3 -77,4 -164,5l-42 0 0 -140 17 0c44,0 74,-5 88,-15 10,-7 17,-16 19,-26 3,-10 4,-30 5,-61l0 -173c0,-44 6,-78 17,-101 11,-24 32,-45 61,-64zm-9054 0c30,19 50,40 61,64 11,23 17,57 17,101l0 173c1,31 3,52 5,62 3,11 10,19 21,27 16,9 44,13 86,13l17 0 0 140 -42 0c-87,-1 -142,-2 -164,-5 -23,-3 -44,-12 -65,-25 -23,-15 -40,-35 -50,-61 -11,-25 -16,-58 -16,-100l0 -201c0,-38 -5,-65 -16,-83 -11,-18 -31,-29 -58,-36l0 -139c27,-6 47,-18 58,-36 11,-17 16,-45 16,-82l0 -201c0,-42 5,-75 16,-101 10,-25 27,-45 50,-60 21,-14 44,-22 71,-25 27,-4 79,-5 158,-5l42 0 0 140 -17 0c-44,0 -74,5 -88,16 -10,7 -17,16 -19,25 -3,10 -4,30 -5,61l0 173c0,43 -6,77 -17,101 -11,24 -32,45 -61,64z"/>
   <g>
    <path class="fil1 str0" d="M4356 152c242,0 438,196 438,438 0,242 -196,438 -438,438 -242,0 -438,-196 -438,-438 0,-242 196,-438 438,-438zm1125 850l-184 0 0 -91 -3 0c-45,70 -106,105 -182,105 -139,0 -208,-83 -208,-251l0 -361 184 0 0 344c0,85 33,127 100,127 33,0 60,-11 80,-35 19,-23 29,-54 29,-94l0 -342 184 0 0 598zm-1125 -696c157,0 284,127 284,284 0,157 -127,284 -284,284 -157,0 -284,-127 -284,-284 0,-157 127,-284 284,-284z"/>
    <path class="fil2 str1" d="M8565 1016c-100,0 -178,-27 -235,-83 -57,-56 -86,-132 -86,-228 0,-99 30,-176 89,-232 59,-56 139,-84 240,-84 99,0 177,28 234,84 56,56 84,130 84,222 0,99 -29,178 -87,235 -58,58 -138,86 -239,86zm-7912 -14l0 -838 297 0c298,0 446,136 446,409 0,130 -40,234 -121,312 -82,78 -190,117 -325,117l-297 0zm189 -684l0 531 94 0c81,0 145,-25 192,-74 46,-49 70,-116 70,-200 0,-80 -23,-143 -69,-188 -47,-46 -111,-69 -195,-69l-92 0zm1173 684l-175 0 0 -86 -2 0c-40,67 -99,100 -178,100 -58,0 -104,-16 -137,-49 -34,-33 -50,-77 -50,-132 0,-116 69,-183 206,-201l163 -21c0,-65 -36,-98 -107,-98 -71,0 -139,21 -203,63l0 -139c26,-13 61,-24 105,-35 45,-10 86,-15 122,-15 171,0 256,85 256,255l0 358zm-173 -243l0 -40 -109 14c-60,7 -90,34 -90,81 0,21 7,38 22,52 14,13 34,20 59,20 35,0 63,-12 85,-36 22,-24 33,-54 33,-91zm889 -355l-223 598 -210 0 -212 -598 197 0 104 368c12,42 19,77 21,107l2 0c3,-28 10,-62 22,-103l106 -372 193 0zm172 -95c-31,0 -57,-9 -76,-28 -20,-18 -30,-41 -30,-68 0,-27 10,-50 30,-67 19,-18 45,-27 76,-27 32,0 57,9 77,27 19,17 29,40 29,67 0,28 -10,51 -29,69 -20,18 -45,27 -77,27zm91 693l-184 0 0 -598 184 0 0 598zm116 -16l0 -149c31,18 61,32 91,41 30,9 59,13 86,13 32,0 58,-4 77,-13 19,-9 28,-23 28,-41 0,-12 -4,-22 -12,-30 -9,-7 -20,-14 -33,-20 -14,-6 -29,-11 -45,-16 -16,-5 -31,-10 -46,-15 -23,-9 -44,-19 -62,-29 -19,-11 -34,-23 -46,-36 -12,-14 -22,-30 -28,-48 -6,-18 -10,-39 -10,-63 0,-34 8,-63 22,-87 15,-24 34,-44 59,-59 24,-15 52,-27 83,-34 31,-7 64,-11 98,-11 27,0 53,2 81,6 27,4 54,10 80,18l0 143c-23,-14 -48,-24 -75,-31 -27,-7 -53,-10 -78,-10 -13,0 -24,1 -34,3 -11,2 -21,5 -29,9 -8,4 -15,10 -19,16 -5,7 -7,14 -7,22 0,11 3,20 10,28 7,8 16,15 28,20 11,6 24,11 37,15 14,5 28,9 42,14 24,9 46,18 66,28 20,10 37,22 51,36 15,13 25,29 33,48 8,18 11,40 11,65 0,36 -7,66 -23,91 -15,25 -35,45 -61,61 -25,16 -55,28 -88,35 -34,7 -68,10 -104,10 -66,0 -127,-10 -183,-30zm2620 -677c-31,0 -57,-9 -76,-28 -20,-18 -30,-41 -30,-68 0,-27 10,-50 30,-67 19,-18 45,-27 76,-27 32,0 57,9 77,27 20,17 30,40 30,67 0,28 -10,51 -30,69 -20,18 -45,27 -77,27zm91 693l-184 0 0 -598 184 0 0 598zm733 0l-184 0 0 -332c0,-93 -33,-139 -99,-139 -32,0 -58,12 -79,36 -21,25 -31,56 -31,94l0 341 -184 0 0 -598 184 0 0 95 3 0c44,-73 108,-110 192,-110 132,0 198,82 198,247l0 366zm508 -7c-27,14 -68,21 -123,21 -130,0 -195,-67 -195,-202l0 -274 -97 0 0 -136 97 0 0 -129 184 -53 0 182 134 0 0 136 -134 0 0 242c0,62 24,93 74,93 19,0 39,-5 60,-17l0 137zm637 -239l-390 0c6,86 61,130 164,130 65,0 123,-16 173,-47l0 133c-55,30 -127,44 -215,44 -97,0 -172,-26 -225,-80 -54,-53 -80,-128 -80,-224 0,-99 28,-178 86,-236 58,-58 129,-87 213,-87 87,0 154,26 202,78 48,52 72,122 72,211l0 78zm-171 -114c0,-85 -35,-128 -104,-128 -30,0 -56,12 -77,36 -22,25 -35,56 -40,92l221 0zm671 -72c-23,-12 -48,-18 -78,-18 -40,0 -71,15 -94,44 -23,30 -34,70 -34,120l0 286 -184 0 0 -598 184 0 0 111 2 0c30,-81 82,-122 158,-122 20,0 35,3 46,7l0 170zm371 -39c-44,0 -78,15 -102,44 -24,31 -36,73 -36,128 0,115 46,172 139,172 88,0 132,-59 132,-177 0,-112 -44,-167 -133,-167z"/>
   </g>
   <path class="fil3 str2" d="M5066 1282l48 0 96 247 -49 0 -20 -51 -102 0 -20 51 -49 0 96 -247zm24 66l-34 85 68 0 -34 -85zm160 -66l51 0c27,0 47,2 59,7 11,5 21,13 28,24 7,12 11,25 11,41 0,16 -4,30 -12,40 -8,11 -20,20 -36,25l59 110 -52 0 -56 -104 -5 0 0 104 -47 0 0 -247zm47 97l15 0c16,0 26,-2 32,-6 6,-4 9,-11 9,-20 0,-5 -2,-10 -5,-14 -2,-4 -6,-7 -11,-9 -5,-2 -14,-2 -26,-2l-14 0 0 51zm365 114l44 56 -57 0 -22 -28c-18,10 -38,15 -61,15 -37,0 -68,-13 -93,-39 -25,-25 -37,-56 -37,-92 0,-23 6,-45 17,-65 12,-20 28,-35 48,-47 20,-12 42,-18 65,-18 35,0 66,13 91,39 26,25 38,56 38,92 0,34 -11,63 -33,87zm-30 -38c10,-15 15,-31 15,-49 0,-23 -8,-43 -24,-60 -15,-16 -35,-24 -57,-24 -23,0 -43,8 -58,24 -16,16 -24,36 -24,60 0,28 10,49 30,65 15,13 33,19 52,19 11,0 22,-2 32,-6l-45 -58 57 0 22 29zm107 -173l47 0 0 160c0,14 1,24 4,29 2,6 6,11 12,14 6,3 12,5 20,5 9,0 16,-2 22,-6 6,-3 10,-8 12,-14 3,-6 4,-17 4,-34l0 -154 48 0 0 147c0,25 -2,43 -5,52 -3,10 -8,19 -16,28 -8,9 -17,16 -27,20 -11,4 -23,7 -37,7 -18,0 -34,-4 -47,-13 -13,-8 -23,-18 -29,-31 -5,-12 -8,-33 -8,-63l0 -147zm220 0l48 0 0 247 -48 0 0 -247zm77 0l138 0 0 46 -46 0 0 201 -48 0 0 -201 -44 0 0 -46zm170 0l137 0 0 46 -89 0 0 44 89 0 0 46 -89 0 0 65 89 0 0 46 -137 0 0 -247zm410 43l-33 32c-23,-24 -48,-36 -77,-36 -24,0 -44,8 -60,24 -16,16 -25,36 -25,60 0,17 4,31 11,44 8,13 18,23 31,30 13,7 28,11 44,11 14,0 27,-2 38,-8 11,-5 24,-14 38,-27l32 33c-18,18 -36,30 -52,37 -17,7 -35,11 -56,11 -39,0 -71,-13 -96,-37 -25,-24 -37,-56 -37,-94 0,-25 6,-46 17,-66 11,-19 27,-34 48,-46 21,-12 44,-18 68,-18 21,0 41,5 60,13 19,9 35,21 49,37zm17 -43l138 0 0 46 -45 0 0 201 -49 0 0 -201 -44 0 0 -46zm288 -7c35,0 66,13 91,39 26,25 38,56 38,92 0,36 -12,67 -37,92 -25,25 -56,38 -91,38 -38,0 -69,-13 -94,-39 -25,-26 -37,-56 -37,-92 0,-23 6,-45 17,-65 12,-20 28,-35 48,-47 20,-12 42,-18 65,-18zm-1 47c-23,0 -42,8 -57,24 -16,16 -24,36 -24,60 0,28 10,49 30,65 15,13 32,19 52,19 23,0 42,-8 58,-24 15,-16 23,-36 23,-60 0,-23 -8,-43 -24,-60 -15,-16 -35,-24 -58,-24zm273 -40l124 0 0 45 -76 0 0 45 76 0 0 46 -76 0 0 111 -48 0 0 -247zm169 0l51 0c28,0 47,2 59,7 12,5 21,13 28,24 7,12 11,25 11,41 0,16 -4,30 -12,40 -8,11 -20,20 -35,25l59 110 -52 0 -56 -104 -5 0 0 104 -48 0 0 -247zm48 97l15 0c15,0 26,-2 31,-6 6,-4 9,-11 9,-20 0,-5 -1,-10 -4,-14 -3,-4 -7,-7 -12,-9 -4,-2 -13,-2 -26,-2l-13 0 0 51zm269 -104c35,0 65,13 91,39 25,25 38,56 38,92 0,36 -13,67 -38,92 -25,25 -55,38 -91,38 -38,0 -69,-13 -93,-39 -25,-26 -38,-56 -38,-92 0,-23 6,-45 18,-65 11,-20 27,-35 47,-47 20,-12 42,-18 66,-18zm-1 47c-23,0 -43,8 -58,24 -16,16 -24,36 -24,60 0,28 10,49 30,65 15,13 33,19 53,19 22,0 41,-8 57,-24 16,-16 24,-36 24,-60 0,-23 -8,-43 -24,-60 -16,-16 -35,-24 -58,-24zm175 -40l45 0 108 163 0 -163 47 0 0 247 -46 0 -107 -162 0 162 -47 0 0 -247zm232 0l138 0 0 46 -45 0 0 201 -48 0 0 -201 -45 0 0 -46zm171 0l136 0 0 46 -89 0 0 44 89 0 0 46 -89 0 0 65 89 0 0 46 -136 0 0 -247zm181 0l45 0 107 163 0 -163 47 0 0 247 -45 0 -107 -162 0 162 -47 0 0 -247zm257 0l56 0c36,0 63,4 81,13 17,9 32,24 43,44 12,20 17,43 17,70 0,19 -3,37 -9,53 -7,16 -15,29 -27,40 -11,10 -23,17 -36,21 -13,4 -36,6 -68,6l-57 0 0 -247zm47 45l0 157 22 0c22,0 37,-3 47,-8 10,-5 18,-13 24,-25 6,-11 9,-26 9,-43 0,-26 -7,-47 -22,-61 -13,-13 -34,-20 -64,-20l-16 0z"/>
   <rect class="fil4" transform="matrix(1.08089 -0.909925 0.590978 0.702018 4393.61 790.163)" width="138" height="426"/>
  </g>
 </g>
</svg>
