<?xml version="1.0" encoding="UTF-8"?>
<!DOCTYPE svg PUBLIC "-//W3C//DTD SVG 1.1//EN" "http://www.w3.org/Graphics/SVG/1.1/DTD/svg11.dtd">
<!-- Creator: CorelDRAW X8 -->
<svg xmlns="http://www.w3.org/2000/svg" xml:space="preserve" width="150mm" height="75mm" version="1.1" style="shape-rendering:geometricPrecision; text-rendering:geometricPrecision; image-rendering:optimizeQuality; fill-rule:evenodd; clip-rule:evenodd"
viewBox="0 0 15000 7500"
 xmlns:xlink="http://www.w3.org/1999/xlink">
 <defs>
  <style type="text/css">
   <![CDATA[
    .fil0 {fill:none}
    .fil2 {fill:black;fill-rule:nonzero}
    .fil1 {fill:#050505;fill-rule:nonzero}
    .fil17 {fill:url(#id0)}
    .fil9 {fill:url(#id1)}
    .fil16 {fill:url(#id2)}
    .fil4 {fill:url(#id3)}
    .fil5 {fill:url(#id4)}
    .fil3 {fill:url(#id5)}
    .fil7 {fill:url(#id6)}
    .fil6 {fill:url(#id7)}
    .fil15 {fill:url(#id8)}
    .fil11 {fill:url(#id9)}
    .fil14 {fill:url(#id10)}
    .fil13 {fill:url(#id11)}
    .fil10 {fill:url(#id12)}
    .fil8 {fill:url(#id13)}
    .fil12 {fill:url(#id14)}
   ]]>
  </style>
  <linearGradient id="id0" gradientUnits="userSpaceOnUse" x1="12106.5" y1="2636.07" x2="12196" y2="2644.03">
   <stop offset="0" style="stop-opacity:1; stop-color:#FBEE23"/>
   <stop offset="0.980392" style="stop-opacity:1; stop-color:#F5AF31"/>
   <stop offset="1" style="stop-opacity:1; stop-color:#F5AF31"/>
  </linearGradient>
  <linearGradient id="id1" gradientUnits="objectBoundingBox" x1="102.089%" y1="7.22629%" x2="0%" y2="94.2676%">
   <stop offset="0" style="stop-opacity:1; stop-color:#D9D8D8"/>
   <stop offset="1" style="stop-opacity:1; stop-color:#BBBCBE"/>
  </linearGradient>
  <linearGradient id="id2" gradientUnits="userSpaceOnUse" xlink:href="#id0" x1="11969.6" y1="2607.13" x2="12059.5" y2="2615.09">
  </linearGradient>
  <linearGradient id="id3" gradientUnits="userSpaceOnUse" x1="4425.45" y1="1839.38" x2="4443.06" y2="2260.99">
   <stop offset="0" style="stop-opacity:1; stop-color:#373435"/>
   <stop offset="0.34902" style="stop-opacity:1; stop-color:#848688"/>
   <stop offset="1" style="stop-opacity:1; stop-color:#373435"/>
  </linearGradient>
  <linearGradient id="id4" gradientUnits="userSpaceOnUse" xlink:href="#id3" x1="5390.99" y1="1841.16" x2="5408.6" y2="2262.73">
  </linearGradient>
  <linearGradient id="id5" gradientUnits="userSpaceOnUse" x1="5923.81" y1="1702.94" x2="3988.57" y2="4455.11">
   <stop offset="0" style="stop-opacity:1; stop-color:#C5C5C6"/>
   <stop offset="1" style="stop-opacity:1; stop-color:#AEB0B0"/>
  </linearGradient>
  <linearGradient id="id6" gradientUnits="objectBoundingBox" xlink:href="#id5" x1="95.5645%" y1="0%" x2="5.49734%" y2="100.094%">
  </linearGradient>
  <linearGradient id="id7" gradientUnits="userSpaceOnUse" xlink:href="#id3" x1="5390.99" y1="1841.16" x2="5408.6" y2="2262.73">
  </linearGradient>
  <radialGradient id="id8" gradientUnits="userSpaceOnUse" gradientTransform="matrix(1.16589 -0.0881656 0.0881652 1.16589 -2331 654)" cx="12588" cy="2748.48" r="953.09" fx="12588" fy="2748.48">
   <stop offset="0" style="stop-opacity:1; stop-color:#FBEE23"/>
   <stop offset="0.988235" style="stop-opacity:1; stop-color:#F9C62C"/>
   <stop offset="1" style="stop-opacity:1; stop-color:#F9C62C"/>
  </radialGradient>
  <radialGradient id="id9" gradientUnits="userSpaceOnUse" gradientTransform="matrix(1.01183 -0.0467925 0.0467925 1.01184 -265 563)" xlink:href="#id8" cx="12647.3" cy="2463.12" r="1034.87" fx="12647.3" fy="2463.12">
  </radialGradient>
  <radialGradient id="id10" gradientUnits="userSpaceOnUse" gradientTransform="matrix(1.14944 -0.0854963 0.0854992 1.14948 -2115 670)" xlink:href="#id8" cx="12592.5" cy="2721.76" r="938.69" fx="12592.5" fy="2721.76">
  </radialGradient>
  <radialGradient id="id11" gradientUnits="userSpaceOnUse" gradientTransform="matrix(1.17394 -0.0593548 0.0593548 1.17394 -2354 424)" cx="12868.3" cy="1955.73" r="351.12" fx="12868.3" fy="1955.73">
   <stop offset="0" style="stop-opacity:1; stop-color:#FBEE23"/>
   <stop offset="0.988235" style="stop-opacity:1; stop-color:#F5AF31"/>
   <stop offset="1" style="stop-opacity:1; stop-color:#F5AF31"/>
  </radialGradient>
  <radialGradient id="id12" gradientUnits="userSpaceOnUse" gradientTransform="matrix(-0.119436 1.03289 -0.969832 -0.113556 14545 -6566)" cx="10036.3" cy="3412.76" r="525.8" fx="10036.3" fy="3412.76">
   <stop offset="0" style="stop-opacity:1; stop-color:#84C44C"/>
   <stop offset="1" style="stop-opacity:1; stop-color:#45B653"/>
  </radialGradient>
  <radialGradient id="id13" gradientUnits="userSpaceOnUse" gradientTransform="matrix(-0.238697 1.06239 -1.92706 -0.115459 14456 -791)" cx="5147.34" cy="4192.97" r="893.91" fx="5147.34" fy="4192.97">
   <stop offset="0" style="stop-opacity:1; stop-color:#84C44C"/>
   <stop offset="1" style="stop-opacity:1; stop-color:#00A859"/>
  </radialGradient>
  <radialGradient id="id14" gradientUnits="userSpaceOnUse" gradientTransform="matrix(1.00523 -0.0535014 0.0535016 1.00523 -173 662)" xlink:href="#id11" cx="12571.7" cy="1997.25" r="479.78" fx="12571.7" fy="1997.25">
  </radialGradient>
 </defs>
 <g id="Capa_x0020_1">
  <metadata id="CorelCorpID_0Corel-Layer"/>
  <g id="_2499916649280">
   <polygon class="fil0" points="0,0 0,7500 15000,7500 15000,0 "/>
   <path class="fil1" d="M11904 3544c43,-34 91,-51 143,-51l776 0c174,0 262,-72 262,-216 0,-142 -88,-213 -262,-213l-919 0 0 480zm-1295 571l-50 0c10,-10 19,-22 26,-35l251 -435c9,-15 16,-31 20,-47l488 764 -584 0 -151 -247zm-1197 30l-14 4c-75,22 -125,54 -151,96l-70 117 -584 0 488 -764c4,16 11,32 20,47l251 435c15,26 36,48 60,65zm-1259 -782l0 999 -487 0 0 -999c0,-54 5,-106 15,-156 10,-50 20,-86 30,-109l17 -34 -812 0 0 -415 2124 0 0 415 -700 0c-125,0 -187,100 -187,299zm-1856 -428l0 -286 506 0 0 286c0,0 -169,0 -506,0zm0 1427l0 -1259 506 0 0 1259c0,0 -169,0 -506,0zm-5073 0l0 -856c0,-141 54,-279 164,-414 110,-136 244,-244 402,-323 159,-80 311,-120 458,-120l1230 0 0 415 -1178 0c-48,0 -97,8 -146,24 -50,15 -92,34 -127,54 -36,21 -67,42 -95,64 -28,21 -49,40 -65,56l-21 23 1243 0 0 415 -1360 0 0 247 1762 0 0 415 -2267 0zm10680 0l-506 0 0 -1713 1336 0c571,0 857,210 857,628 0,97 -14,183 -41,258 -26,76 -59,133 -97,172 -38,39 -76,70 -113,94 -37,25 -69,40 -95,47l-41 8c48,78 101,155 158,233 24,33 56,72 96,117 40,45 75,82 104,112l42 44 -610 0c-64,-68 -128,-146 -192,-236 -17,-25 -43,-67 -78,-126 -35,-60 -53,-91 -55,-92l-622 0c-40,0 -74,10 -101,32 -28,22 -42,52 -42,90l0 332z"/>
   <path class="fil2" d="M11456 4944c0,-114 -29,-156 -159,-156l-276 0c-24,0 -35,-9 -35,-39l0 -25c0,-28 11,-37 38,-37l159 0 0 -112 -192 0c-109,0 -142,36 -142,129l0 41c0,95 22,143 137,143l285 0c33,0 46,5 46,45l0 18c0,37 -13,48 -50,48l-419 0 0 117 437 0c142,0 171,-37 171,-144l0 -28zm2100 172c36,0 49,-13 49,-45l0 -82c0,-31 -13,-45 -49,-45l-46 0c-34,0 -47,14 -47,45l0 82c0,32 13,45 47,45l46 0zm-177 -172c0,-114 -29,-156 -159,-156l-275 0c-24,0 -36,-9 -36,-39l0 -25c0,-28 12,-37 39,-37l159 0 0 -112 -193 0c-109,0 -141,36 -141,129l0 41c0,95 21,143 136,143l285 0c34,0 47,5 47,45l0 18c0,37 -13,48 -51,48l-418 0 0 117 436 0c142,0 171,-37 171,-144l0 -28zm-755 172c35,0 48,-13 48,-45l0 -82c0,-31 -13,-45 -48,-45l-46 0c-35,0 -48,14 -48,45l0 82c0,32 13,45 48,45l46 0zm-408 0c180,0 232,-53 232,-210l0 -132c0,-138 -64,-199 -226,-199l-139 0 0 105 139 0c62,0 86,18 86,87l0 12 -375 0c-141,0 -176,52 -176,143l0 51c0,88 39,143 185,143l274 0zm92 -199c0,81 -28,97 -94,97l-262 0c-35,0 -57,-13 -57,-51l0 -37c0,-43 20,-55 53,-55l360 0 0 46zm-675 199c36,0 49,-13 49,-45l0 -82c0,-31 -13,-45 -49,-45l-46 0c-35,0 -48,14 -48,45l0 82c0,32 13,45 48,45l46 0z"/>
   <path class="fil3" d="M4092 1943l-1 0 -2 1c-172,5 -327,97 -414,246 -85,147 -89,331 -10,482 0,1 0,1 1,2l413 721 414 723c0,1 1,1 1,2 91,147 248,235 421,236 170,0 331,-89 422,-232 1,-1 1,-2 2,-2l419 -718 419 -722c0,-1 1,-2 1,-3 80,-150 77,-334 -7,-481 -86,-150 -241,-243 -413,-250 -1,0 -2,0 -3,0l-223 0c-40,0 -73,33 -73,74 0,40 32,73 73,74 0,0 217,0 221,0 121,4 229,70 290,175 30,54 46,114 46,175 -1,56 -14,113 -41,163 -2,4 -418,720 -418,720 0,0 -415,712 -418,716 -64,101 -177,163 -296,163 -122,0 -232,-62 -296,-165 -2,-4 -413,-721 -413,-721 0,0 -410,-715 -412,-719 -26,-51 -40,-107 -39,-164 0,-60 15,-121 46,-174 61,-105 170,-170 292,-174 4,0 190,1 190,1 41,0 74,-33 74,-74 0,-40 -33,-73 -73,-74l-193 -1z"/>
   <path class="fil4" d="M4547 1809c-127,0 -229,102 -230,229 0,127 102,230 229,230l1 -459z"/>
   <path class="fil5" d="M5283 2270c126,1 230,-102 230,-229 0,-126 -102,-229 -229,-230l-1 459z"/>
   <path class="fil6" d="M5283 2270c126,1 230,-102 230,-229 0,-126 -102,-229 -229,-230l-1 459zm-736 -461c-127,0 -229,102 -230,229 0,127 102,230 229,230l1 -459z"/>
   <path class="fil7" d="M7923 4374c1,-133 -107,-241 -240,-241 -132,-1 -240,106 -241,239 0,133 107,241 240,242 133,0 241,-107 241,-240l0 0z"/>
   <path class="fil7" d="M7923 4374c1,-133 -107,-241 -240,-241 -132,-1 -240,106 -241,239 0,133 107,241 240,242 133,0 241,-107 241,-240l0 0z"/>
   <path class="fil8" d="M4500 4012c53,-36 130,-27 172,19 9,10 144,163 246,391 104,-227 240,-380 249,-390 42,-46 119,-54 172,-18 54,36 63,103 22,150 -149,164 -269,387 -302,608 -20,131 27,193 80,310 209,458 564,603 830,507 90,-33 164,-99 226,-182 212,-280 191,-480 524,-760 227,-190 521,-323 832,-343 46,-43 124,-45 173,-5 50,41 52,108 5,151 -438,-1 -759,167 -973,395 -103,110 -182,233 -236,360 -352,814 -1151,1039 -1768,-533 -111,-283 -272,-508 -274,-510 -42,-47 -32,-114 22,-150l0 0z"/>
   <path class="fil9" d="M7683 4215c-87,0 -158,71 -158,158 0,87 70,157 157,158 87,0 158,-70 158,-158 1,-87 -70,-157 -157,-158l0 0z"/>
   <path class="fil9" d="M7683 4215c-87,0 -158,71 -158,158 0,87 70,157 157,158 87,0 158,-70 158,-158 1,-87 -70,-157 -157,-158l0 0z"/>
   <path class="fil10" d="M10796 3466l-91 -157 -401 232 59 102c0,0 0,0 0,0 239,-4 396,-78 423,-91 1,-1 2,0 1,1 -151,139 -402,128 -402,128l-306 0c0,0 0,0 0,-1l0 -41c0,0 -1,0 -1,0l-240 266c0,0 0,0 0,1l240 265c0,0 1,0 1,0l0 -36c0,-1 0,-1 0,-1l331 0c55,0 107,-30 135,-78l251 -435c27,-48 27,-107 0,-155l0 0zm-1200 215c-119,208 -137,381 -139,411 0,1 -1,1 -1,0 -42,-201 96,-411 96,-411l0 0 0 0 200 -345c0,-1 1,-1 1,-1l26 15c0,1 1,0 1,0l-107 -343 -354 77c0,0 -1,0 0,1l31 18c1,0 1,0 1,1l-210 362c-28,48 -28,107 0,155l251 435c28,48 79,78 135,78l275 0 0 -453 -205 0c-1,0 -1,0 -1,0l0 0zm350 -682c0,0 0,-1 0,-1 -118,-209 -258,-312 -283,-330 0,0 0,-1 1,-1 194,67 304,292 304,293 0,0 0,0 0,0l194 335c0,0 0,1 -1,1l-28 16c0,1 0,1 0,2l357 77c1,0 1,0 1,-1l103 -343c0,0 0,-1 -1,-1l-29 17c0,1 -1,0 -1,0l-209 -362c-28,-48 -79,-78 -135,-78l-502 0c-55,0 -107,30 -134,78l-91 158 401 232 53 -92z"/>
   <path class="fil11" d="M11654 2683c0,0 56,-1155 1088,-1028 0,0 602,12 779,995 0,0 201,101 202,240 0,0 50,404 -782,315 -231,-35 -568,-115 -955,-350 -135,-82 -331,-116 -332,-172z"/>
   <path class="fil12" d="M12140 1760c192,-8 646,36 824,595l135 -20c0,0 -47,-545 -643,-681 -123,16 -228,54 -316,106l0 0z"/>
   <path class="fil13" d="M12580 1646c168,61 461,231 562,674l141 -25c0,0 -87,-384 -319,-573 -126,-65 -222,-67 -222,-67 -57,-7 -111,-10 -162,-9z"/>
   <path class="fil14" d="M11656 2694l9 2 16 6 15 5 16 5 16 5 16 5 15 5 16 5 15 5 16 5 15 4 15 5 16 4 15 4 15 4 15 4 15 4 15 4 15 4 14 4 15 4 15 3 14 4 15 3 14 3 14 4 15 3 14 3 14 3 14 3 14 3 14 3 14 2 14 3 13 2 14 3 13 2 14 3 13 2 14 2 13 2 13 2 14 2 13 2 13 2 13 1 13 2 12 2 13 1 13 2 13 1 12 1 13 2 12 1 13 1 12 1 12 1 12 1 12 1 12 1 12 0 12 1 12 1 12 0 12 1 11 0 12 1 11 0 12 0 11 1 12 0 11 0 11 0 11 0 11 0 11 0 11 0 11 -1 11 0 10 0 11 0 11 -1 10 0 11 -1 10 0 10 -1 11 -1 10 0 10 -1 10 -1 10 -1 10 0 10 -1 10 -1 9 -1 10 -1 10 -1 9 -1 10 -1 9 -2 9 -1 10 -1 9 -1 9 -2 9 -1 9 -1 9 -2 9 -1 9 -2 9 -1 8 -2 9 -1 8 -2 9 -2 8 -1 9 -2 8 -2 8 -2 8 -1 9 -2 8 -2 8 -2 8 -2 7 -2 8 -2 8 -2 8 -2 7 -2 8 -2 7 -2 8 -2 7 -2 7 -2 7 -2 8 -2 7 -2 7 -2 7 -3 7 -2 6 -2 7 -2 7 -2 7 -3 6 -2 7 -2 6 -2 7 -3 6 -2 6 -2 6 -3 7 -2 6 -2 6 -3 6 -2 6 -2 5 -3 6 -2 6 -2 5 -3 6 -2 6 -3 5 -2 5 -2 6 -3 5 -2 5 -2 5 -3 5 -2 5 -3 5 -2 5 -2 5 -3 5 -2 5 -2 4 -3 5 -2 4 -2 5 -2 4 -3 5 -2 4 -2 4 -3 4 -2 4 -2 4 -2 4 -3 4 -2 4 -2 4 -2 4 -2 3 -2 4 -3 3 -2 4 -2 3 -2 4 -2 3 -2 3 -2 0 0c-6,-3 -10,-5 -10,-5 -1,-9 -3,-18 -5,-26l-1 1 -3 1 -3 2 -3 2 -4 2 -3 2 -3 2 -4 2 -3 2 -4 3 -3 2 -4 2 -4 2 -3 2 -4 2 -4 2 -4 2 -4 3 -4 2 -4 2 -5 2 -4 2 -4 3 -5 2 -4 2 -5 2 -4 3 -5 2 -4 2 -5 3 -5 2 -5 2 -5 2 -5 3 -5 2 -5 2 -5 3 -6 2 -5 2 -5 3 -6 2 -5 2 -6 3 -5 2 -6 2 -6 2 -6 3 -5 2 -6 2 -6 2 -6 3 -7 2 -6 2 -6 2 -6 3 -7 2 -6 2 -7 2 -6 3 -7 2 -6 2 -7 2 -7 2 -7 2 -7 2 -7 2 -7 2 -7 3 -7 2 -7 2 -8 2 -7 2 -8 1 -7 2 -8 2 -7 2 -8 2 -8 2 -8 2 -7 2 -8 1 -8 2 -8 2 -9 2 -8 1 -8 2 -8 1 -9 2 -8 2 -9 1 -8 2 -9 1 -9 1 -9 2 -8 1 -9 2 -9 1 -9 1 -9 1 -10 2 -9 1 -9 1 -10 1 -9 1 -9 1 -10 1 -10 1 -9 1 -10 1 -10 0 -10 1 -10 1 -10 0 -10 1 -10 1 -10 0 -11 1 -10 0 -10 0 -11 1 -10 0 -11 0 -11 1 -10 0 -11 0 -11 0 -11 0 -11 0 -11 0 -11 -1 -11 0 -12 0 -11 0 -11 -1 -12 0 -11 -1 -12 0 -12 -1 -11 -1 -12 0 -12 -1 -12 -1 -12 -1 -12 -1 -12 -1 -12 -1 -13 -1 -12 -2 -12 -1 -13 -1 -12 -2 -13 -1 -13 -2 -13 -1 -12 -2 -13 -2 -13 -2 -13 -2 -13 -2 -13 -2 -14 -2 -13 -2 -13 -2 -14 -3 -13 -2 -14 -3 -13 -2 -14 -3 -14 -3 -14 -2 -14 -3 -14 -3 -14 -3 -14 -4 -14 -3 -14 -3 -14 -3 -15 -4 -14 -3 -15 -4 -14 -4 -15 -4 -15 -3 -15 -4 -14 -4 -15 -5 -15 -4 -15 -4 -16 -5 -15 -4 -15 -5 -15 -4 -16 -5 -15 -5 -16 -5 -15 -5 -16 -5 -16 -5 -16 -6 -16 -5 -4 -2c-2,17 -2,26 -2,26 0,4 1,7 2,11l0 0z"/>
   <path class="fil15" d="M12640 2918l11 0 11 0 11 0 11 0 11 0 10 0 11 -1 11 0 10 -1 11 0 10 -1 10 0 11 -1 10 -1 10 0 10 -1 10 -1 10 -1 10 -1 10 -1 10 -1 9 -1 10 -1 10 -1 9 -1 10 -1 9 -2 9 -1 10 -1 9 -2 9 -1 9 -2 9 -1 9 -1 9 -2 9 -2 9 -1 9 -2 8 -2 9 -1 8 -2 9 -2 8 -2 9 -1 8 -2 8 -2 8 -2 8 -2 8 -2 8 -2 8 -2 8 -2 8 -2 8 -2 7 -2 8 -2 7 -2 8 -3 7 -2 8 -2 7 -2 7 -2 7 -3 7 -2 8 -2 6 -3 7 -2 7 -2 7 -3 7 -2 6 -2 7 -3 7 -2 6 -2 6 -3 7 -2 6 -3 6 -2 6 -2 7 -3 6 -2 6 -3 5 -2 6 -3 6 -2 6 -2 5 -3 6 -2 6 -3 5 -2 5 -3 6 -2 5 -3 5 -2 5 -3 5 -2 5 -2 5 -3 5 -2 5 -3 5 -2 5 -2 4 -3 5 -2 4 -3 5 -2 4 -2 4 -3 5 -2 4 -2 4 -3 4 -2 4 -2 4 -2 4 -3 4 -2 4 -2 3 -2 4 -2 3 -2 4 -3 3 -2 4 -2 3 -2 3 -2 3 -2 4 -2 3 -2 3 -2 3 -2 2 -1 3 -2 3 -2 2 -1c-14,-10 -26,-16 -33,-20l0 0 -3 2 -3 2 -3 2 -3 2 -3 2 -3 2 -3 2 -4 2 -3 2 -4 2 -3 2 -4 2 -3 2 -4 2 -4 2 -4 2 -4 3 -4 2 -4 2 -4 2 -4 3 -4 2 -4 2 -5 2 -4 3 -4 2 -5 2 -4 3 -5 2 -5 2 -5 3 -4 2 -5 2 -5 3 -5 2 -5 3 -6 2 -5 2 -5 3 -5 2 -6 3 -5 2 -6 2 -5 3 -6 2 -6 3 -5 2 -6 2 -6 3 -6 2 -6 2 -6 3 -6 2 -6 2 -7 3 -6 2 -6 2 -7 3 -6 2 -7 2 -6 3 -7 2 -7 2 -7 2 -7 3 -7 2 -7 2 -7 2 -7 2 -7 3 -7 2 -8 2 -7 2 -7 2 -8 2 -7 2 -8 2 -8 2 -7 2 -8 2 -8 2 -8 2 -8 2 -8 2 -8 1 -8 2 -9 2 -8 2 -8 1 -9 2 -8 2 -9 1 -8 2 -9 1 -9 2 -9 1 -9 2 -8 1 -9 2 -10 1 -9 1 -9 2 -9 1 -9 1 -10 1 -9 1 -10 1 -9 1 -10 1 -9 1 -10 1 -10 1 -10 1 -10 1 -10 0 -10 1 -10 1 -10 0 -10 1 -11 0 -10 1 -10 0 -11 0 -10 1 -11 0 -11 0 -10 0 -11 0 -11 0 -11 0 -11 0 -11 0 -11 0 -11 0 -11 -1 -12 0 -11 -1 -11 0 -12 -1 -11 0 -12 -1 -12 -1 -11 0 -12 -1 -12 -1 -12 -1 -12 -1 -12 -1 -12 -2 -12 -1 -12 -1 -12 -2 -13 -1 -12 -2 -13 -1 -12 -2 -13 -2 -12 -2 -13 -2 -13 -2 -13 -2 -13 -2 -13 -2 -13 -2 -13 -3 -13 -2 -13 -3 -13 -2 -14 -3 -13 -3 -13 -2 -14 -3 -13 -3 -14 -3 -14 -4 -14 -3 -13 -3 -14 -4 -14 -3 -14 -4 -14 -3 -14 -4 -15 -4 -14 -4 -14 -4 -14 -4 -15 -4 -14 -5 -15 -4 -15 -5 -14 -4 -15 -5 -15 -5 -15 -5 -15 -5 -15 -5 -15 -5 -15 -5 -15 -6 -15 -5 -15 -6 -16 -5 -15 -6 -12 -5c4,37 92,64 190,103l0 0 7 2 14 4 15 5 15 4 14 4 15 5 14 4 15 4 14 4 14 3 15 4 14 4 14 3 14 4 14 3 14 4 14 3 14 3 13 3 14 3 14 3 13 3 14 2 13 3 14 2 13 3 13 2 13 3 13 2 13 2 13 2 13 2 13 2 13 2 13 2 13 1 12 2 13 2 12 1 13 2 12 1 12 1 13 1 12 2 12 1 12 1 12 1 12 1 12 0 12 1 12 1 11 0 12 1 12 1 11 0 12 0 11 1 11 0 12 0 11 0 11 0 11 0z"/>
   <path class="fil16" d="M12041 2684c-9,25 -38,41 -64,36 -27,-5 -42,-30 -33,-55l44 -126c9,-26 38,-42 64,-37 27,5 41,30 33,56l-44 126z"/>
   <path class="fil17" d="M12178 2712c-9,26 -38,42 -65,37 -26,-5 -41,-30 -32,-55l44 -126c9,-26 37,-42 64,-37 27,5 41,30 32,55l-43 126z"/>
  </g>
 </g>
</svg>
