<!DOCTYPE svg PUBLIC "-//W3C//DTD SVG 20010904//EN" "http://www.w3.org/TR/2001/REC-SVG-20010904/DTD/svg10.dtd">
<svg version="1.0" xmlns="http://www.w3.org/2000/svg" width="2232px" height="1370px" viewBox="0 0 12000 7370" preserveAspectRatio="xMidYMid meet">
<g id="layer101" fill="#3d4095" stroke="none">
<path d="M5346 7139 c34 -190 120 -408 220 -558 27 -40 56 -84 64 -97 10 -16 24 -24 44 -24 27 0 28 1 14 18 -15 17 -97 134 -113 162 -5 8 13 -4 39 -27 81 -71 147 -92 177 -57 17 21 14 85 -6 123 -8 17 -13 31 -10 31 11 0 106 -63 118 -78 27 -37 116 -102 166 -121 72 -29 153 -28 181 1 11 12 20 28 20 36 0 16 -75 92 -90 92 -18 0 -10 -22 15 -42 46 -36 26 -78 -37 -78 -84 0 -186 65 -231 149 -32 58 -34 87 -7 101 15 8 27 7 47 -4 42 -22 98 -76 128 -123 46 -72 81 -50 46 28 -25 54 -27 97 -5 106 27 10 78 -24 163 -110 60 -59 81 -87 81 -107 0 -33 26 -70 50 -70 28 0 33 16 14 51 l-16 32 33 -7 c19 -3 36 -11 37 -16 2 -6 15 -10 28 -10 28 0 33 30 9 50 -25 21 -75 116 -75 143 0 17 9 32 24 43 23 14 28 14 62 -2 20 -10 83 -64 140 -121 121 -119 178 -153 271 -161 112 -9 150 47 76 114 -20 19 -41 34 -45 34 -15 0 -8 -27 12 -45 24 -22 26 -60 4 -69 -86 -33 -249 62 -290 170 -17 44 -17 46 4 66 l20 21 51 -30 c45 -26 131 -121 131 -146 0 -4 10 -7 23 -5 25 4 25 1 -3 81 -49 140 24 128 177 -29 59 -61 83 -77 83 -53 0 16 -176 186 -212 205 -35 18 -85 21 -100 6 -6 -6 -14 -27 -17 -47 l-6 -35 -27 24 c-45 42 -91 66 -129 66 -41 0 -56 -13 -61 -53 l-3 -29 -48 38 c-57 45 -140 59 -170 29 -27 -26 -22 -101 11 -160 l28 -50 -32 3 c-23 3 -51 24 -115 89 -94 96 -147 134 -190 135 -39 1 -57 -17 -61 -59 l-3 -36 -48 41 c-51 45 -78 56 -123 50 -39 -4 -63 -47 -48 -85 l11 -29 -45 23 c-25 13 -50 23 -56 23 -6 0 -21 11 -33 24 -26 28 -82 56 -110 56 -40 0 -69 -60 -42 -87 6 -6 37 -8 78 -5 l68 4 27 -35 c15 -19 30 -51 33 -71 5 -31 2 -37 -18 -44 -71 -27 -193 87 -266 247 -37 79 -83 243 -83 292 0 18 -5 29 -14 29 -8 0 -21 3 -30 6 -13 5 -15 0 -10 -27z m312 -358 c9 -5 2 -10 -24 -14 -41 -7 -50 -4 -39 12 7 13 45 14 63 2z"/>
<path d="M4193 6829 c-35 -22 -59 -82 -46 -115 4 -12 -15 -1 -47 27 -96 81 -155 98 -201 58 -31 -27 -31 -88 -1 -153 12 -25 22 -48 22 -51 0 -3 -16 -5 -36 -5 -51 0 -39 -24 16 -30 41 -5 44 -8 82 -75 47 -83 37 -72 71 -80 37 -10 35 5 -13 81 -22 35 -40 67 -40 70 0 4 34 4 76 1 55 -4 74 -2 71 6 -2 8 -33 13 -80 15 -73 3 -77 4 -95 35 -50 81 -53 167 -6 167 42 0 85 -29 184 -125 52 -50 106 -99 120 -108 30 -21 120 -23 120 -4 0 25 -21 36 -45 25 -18 -8 -32 -6 -62 8 -103 51 -115 214 -14 214 70 0 120 -110 70 -153 -21 -18 -22 -38 -1 -44 6 -3 21 6 34 19 38 38 81 30 167 -30 58 -40 82 -52 112 -52 41 0 52 8 39 29 -5 9 -17 12 -31 8 -59 -16 -156 68 -166 144 -10 74 48 63 140 -27 50 -49 58 -63 77 -131 12 -43 34 -106 51 -141 16 -35 29 -67 29 -71 0 -15 80 -132 121 -176 97 -105 114 -18 27 143 -44 81 -148 243 -178 277 -38 43 -34 166 6 182 30 11 104 -39 178 -119 87 -97 120 -118 178 -118 52 0 61 6 47 31 -8 15 -14 17 -36 8 -53 -20 -119 21 -142 90 -16 49 -14 75 10 105 36 45 102 29 134 -34 22 -43 18 -71 -12 -97 -24 -19 -26 -24 -13 -32 10 -7 21 -6 35 5 55 40 106 38 154 -7 15 -14 26 -18 33 -11 6 6 2 17 -14 32 -30 29 -61 40 -109 40 -37 0 -39 2 -39 31 0 50 -37 104 -92 134 -43 24 -53 25 -78 15 -41 -17 -63 -45 -69 -91 l-6 -39 -50 43 c-91 78 -154 86 -181 22 -8 -19 -14 -48 -14 -64 0 -29 0 -29 -62 30 -63 60 -103 77 -153 65 -33 -8 -41 -45 -22 -101 l14 -45 -31 0 c-27 0 -32 4 -34 27 -4 44 -36 96 -78 125 -55 38 -83 42 -121 17z m620 -371 c77 -120 98 -158 123 -218 14 -34 23 -67 21 -73 -10 -30 -119 148 -167 271 -34 89 -26 96 23 20z"/>
<path d="M7447 6809 c-36 -28 -51 -88 -43 -179 8 -99 24 -155 77 -276 72 -165 134 -242 185 -232 35 6 30 66 -16 159 -55 114 -78 151 -162 259 -33 42 -38 55 -38 102 0 36 7 69 23 98 19 39 26 45 52 44 48 -2 160 -88 201 -155 14 -23 95 -85 144 -109 28 -14 70 -25 111 -28 59 -4 69 -2 89 18 34 34 16 85 -41 114 -35 18 -41 0 -9 -29 24 -22 26 -60 4 -69 -47 -18 -113 -3 -179 42 -99 67 -156 184 -100 206 37 14 156 -82 187 -149 11 -24 41 -34 52 -17 2 4 -7 30 -20 57 -13 28 -23 64 -22 80 6 66 71 36 195 -92 57 -59 83 -76 83 -54 0 13 -120 132 -181 181 -39 31 -59 40 -90 40 -43 0 -59 -18 -59 -66 l0 -28 -32 31 c-47 44 -93 65 -136 61 -30 -2 -40 -9 -53 -35 l-16 -33 -24 21 c-32 29 -98 59 -130 59 -15 0 -38 -9 -52 -21z m136 -459 c35 -59 77 -161 77 -187 0 -11 -30 1 -47 20 -42 45 -143 280 -143 332 0 12 55 -68 113 -165z"/>
<path d="M8373 6820 c-23 -9 -31 -34 -15 -44 5 -3 27 0 50 6 58 14 87 5 106 -36 20 -42 20 -76 1 -123 -14 -34 -16 -35 -33 -19 -36 32 -58 13 -24 -20 9 -10 17 -32 18 -51 1 -35 19 -63 39 -63 21 0 26 30 11 60 -13 26 -12 30 15 59 49 54 56 131 17 178 -32 39 95 -53 140 -101 122 -129 204 -176 306 -176 63 0 86 16 86 60 0 21 -10 37 -37 59 -21 17 -41 31 -45 31 -16 0 -7 -23 17 -42 46 -36 27 -78 -36 -78 -84 0 -175 56 -229 140 -35 55 -39 95 -10 110 15 8 28 7 52 -6 40 -21 112 -94 133 -134 17 -32 42 -39 51 -15 3 8 -3 31 -15 50 -25 43 -28 103 -5 112 24 9 62 -16 142 -92 74 -70 74 -71 97 -162 13 -51 40 -127 59 -169 20 -42 36 -79 36 -82 0 -11 53 -86 84 -119 20 -22 39 -33 57 -33 47 0 48 43 6 140 -37 84 -169 289 -202 312 -5 4 -9 37 -9 73 2 72 25 131 57 141 43 14 171 -87 258 -203 30 -40 46 -53 66 -53 25 0 25 1 9 23 -33 45 -97 182 -94 202 8 51 80 12 194 -104 38 -39 77 -71 86 -71 23 0 23 3 -6 64 -35 73 -43 124 -22 132 24 9 110 -52 171 -121 72 -81 130 -118 185 -119 34 -1 45 3 45 14 0 11 -11 15 -40 16 -26 0 -54 10 -81 27 -63 42 -108 149 -69 163 30 12 64 -7 127 -68 58 -57 65 -69 81 -132 17 -66 101 -265 117 -276 4 -3 15 -21 25 -40 23 -46 104 -122 124 -118 29 6 16 78 -30 169 -38 76 -165 274 -196 307 -16 16 -17 125 -3 153 23 41 78 14 186 -93 49 -48 84 -76 88 -69 7 11 -65 96 -114 136 -14 11 -33 28 -42 37 -26 26 -89 58 -114 58 -31 0 -65 -42 -71 -88 l-5 -40 -42 40 c-57 56 -95 78 -136 78 -43 0 -60 -15 -60 -52 l0 -28 -27 17 c-16 10 -36 25 -46 34 -10 9 -35 22 -57 29 -36 12 -42 11 -61 -6 -17 -15 -20 -27 -17 -64 l5 -46 -22 21 c-71 68 -119 95 -169 95 -43 0 -61 -26 -51 -77 l6 -35 -46 43 c-131 124 -234 117 -255 -15 -5 -32 -7 -64 -4 -70 3 -6 -14 9 -39 34 -96 97 -144 131 -187 132 -40 1 -60 -18 -60 -58 0 -40 -11 -43 -37 -11 -66 82 -193 88 -193 9 0 -26 -12 -28 -31 -6 -22 27 -84 53 -150 64 -75 12 -87 12 -116 0z m913 -342 c15 -24 30 -45 34 -48 4 -3 31 -50 59 -105 57 -110 73 -165 49 -165 -41 0 -105 127 -173 348 -8 24 5 11 31 -30z m1015 -10 c113 -177 162 -278 145 -295 -20 -20 -119 145 -162 271 -34 97 -32 99 17 24z"/>
<path d="M10583 6590 c7 -83 44 -196 109 -332 45 -95 55 -108 90 -124 29 -13 41 -15 50 -6 9 9 6 19 -14 39 -80 86 -156 232 -193 369 -33 123 -49 144 -42 54z"/>
<path d="M1263 6314 c-7 -3 -56 -56 -110 -119 -224 -259 -324 -409 -485 -728 -145 -288 -268 -681 -314 -1001 -18 -122 -18 -124 -31 -88 -15 46 -78 361 -92 462 -22 156 -33 302 -39 510 l-7 215 -94 3 -94 3 6 -248 c7 -288 18 -398 73 -713 33 -187 129 -540 175 -645 45 -103 59 -166 59 -265 0 -57 4 -131 9 -164 6 -34 15 -110 22 -171 46 -438 193 -923 407 -1350 69 -137 182 -337 209 -370 4 -5 26 -37 47 -70 22 -33 71 -102 110 -154 39 -51 81 -107 93 -124 84 -115 402 -435 521 -524 20 -15 42 -33 47 -39 19 -20 160 -121 260 -186 301 -194 577 -321 910 -417 136 -40 205 -55 380 -85 207 -35 345 -46 590 -46 250 0 389 11 630 50 270 44 285 48 284 73 0 24 -33 154 -40 161 -2 2 -47 -5 -99 -15 -760 -154 -1494 -83 -2120 203 -174 80 -413 216 -520 296 -25 19 -58 43 -74 55 -353 261 -687 635 -930 1042 -62 105 -237 462 -266 545 -13 36 -26 70 -30 75 -10 14 -76 219 -111 345 -42 148 -114 508 -105 517 2 3 15 -15 27 -39 22 -44 130 -206 208 -313 119 -162 349 -409 516 -554 100 -87 284 -229 323 -250 11 -6 26 -17 34 -24 7 -7 36 -26 63 -42 28 -16 52 -32 55 -35 17 -23 400 -224 529 -278 537 -227 1112 -342 1711 -342 613 0 1175 113 1730 347 357 151 791 422 1013 633 l69 65 -22 93 c-12 50 -26 92 -31 92 -6 0 -45 -30 -88 -67 -176 -154 -288 -236 -521 -385 -107 -68 -394 -216 -500 -258 -29 -12 -72 -29 -94 -39 -103 -46 -437 -149 -586 -181 -52 -11 -108 -25 -125 -30 -37 -11 -271 -45 -430 -62 -183 -20 -685 -17 -870 4 -266 31 -547 86 -725 143 -148 47 -355 118 -366 127 -6 4 -28 14 -50 22 -126 44 -348 159 -542 278 -107 67 -341 235 -372 268 -3 3 -18 16 -35 29 -70 54 -260 239 -352 343 -215 246 -365 469 -507 757 -106 214 -100 187 -93 394 7 194 20 299 61 522 87 463 298 946 575 1314 31 40 66 87 78 103 12 17 73 87 135 155 62 69 114 128 116 133 4 10 -20 19 -101 36 -71 15 -84 16 -104 8z"/>
<path d="M5822 5810 c-85 -20 -153 -107 -167 -215 -24 -190 135 -491 345 -651 l50 -38 0 -533 0 -533 85 0 85 0 0 486 0 486 33 -9 c17 -4 76 -8 129 -8 93 0 99 1 125 28 25 24 28 35 28 90 -1 78 -23 125 -89 190 -64 61 -113 87 -182 94 -50 5 -54 4 -54 -16 0 -20 -5 -21 -80 -21 l-80 0 0 -90 c0 -49 -4 -90 -8 -90 -11 0 -107 101 -145 151 -34 45 -102 181 -116 234 -17 62 -13 164 8 210 24 54 87 109 144 124 43 12 53 11 129 -12 128 -40 267 -138 457 -322 57 -55 126 -126 153 -157 44 -51 50 -65 58 -121 10 -71 77 -341 91 -366 4 -9 20 -52 35 -96 15 -44 33 -91 41 -105 7 -14 13 -28 13 -32 0 -22 153 -345 217 -458 94 -165 208 -307 275 -341 43 -22 105 -24 131 -4 11 7 23 32 28 55 25 109 -54 325 -227 623 -132 226 -231 371 -419 612 l-70 89 0 181 c1 206 15 284 70 370 25 38 45 56 84 75 l52 24 66 -18 c104 -27 139 -48 289 -168 109 -87 383 -375 434 -456 42 -67 48 -72 95 -83 28 -6 60 -9 73 -8 21 4 21 7 -25 74 -82 123 -189 342 -208 428 -39 178 16 234 166 168 50 -22 215 -131 268 -177 159 -136 370 -352 419 -426 26 -40 48 -62 73 -72 45 -18 109 -31 109 -21 0 13 -55 105 -62 105 -5 0 -8 4 -8 8 0 4 -32 66 -71 138 -39 71 -82 156 -96 189 -14 33 -28 65 -33 70 -13 18 -20 64 -11 69 7 5 113 -67 169 -114 22 -20 259 -185 294 -205 18 -11 58 -34 88 -52 102 -60 220 -112 272 -119 34 -5 48 -2 68 14 32 26 31 81 -5 267 -45 229 -45 249 1 299 24 25 32 28 68 23 61 -9 132 -50 256 -150 91 -73 355 -348 403 -419 55 -81 82 -98 161 -98 l37 0 -20 28 c-88 126 -202 343 -232 442 -13 45 -19 88 -17 130 3 55 6 65 30 83 25 19 32 19 80 8 49 -11 179 -78 241 -125 77 -57 274 -235 368 -332 152 -156 279 -275 324 -305 116 -76 150 -92 227 -109 30 -7 89 -11 131 -8 68 3 80 7 104 31 25 24 28 35 28 90 -1 78 -23 125 -89 190 -64 61 -113 87 -182 94 -49 5 -54 4 -54 -14 0 -29 39 -60 85 -67 65 -11 108 -35 142 -80 47 -61 51 -95 19 -134 -118 -139 -456 33 -606 307 -75 139 -97 245 -69 345 16 58 81 122 144 142 52 17 54 17 136 -9 139 -43 278 -144 484 -351 72 -72 151 -155 177 -183 49 -57 78 -68 78 -30 -1 51 -412 455 -585 573 -237 162 -450 161 -531 -4 -24 -49 -28 -69 -28 -142 1 -87 6 -114 44 -210 l22 -55 -64 60 c-34 32 -74 71 -88 86 -62 65 -243 208 -317 250 -21 12 -56 33 -78 45 -54 31 -160 57 -199 50 -44 -9 -94 -47 -106 -80 -19 -53 -9 -187 19 -251 5 -11 20 -48 34 -82 l25 -62 -56 61 c-126 136 -300 276 -417 336 -98 49 -214 47 -254 -5 -49 -61 -50 -143 -6 -353 41 -191 33 -215 -57 -185 -69 22 -304 165 -438 267 -108 82 -199 159 -281 237 -54 50 -104 91 -113 91 -24 0 -38 -46 -30 -99 7 -54 53 -191 88 -265 65 -138 66 -138 -73 -4 -337 327 -595 459 -709 363 -39 -33 -55 -93 -47 -169 7 -60 40 -181 54 -201 10 -12 22 -45 17 -45 -2 0 -41 39 -87 86 -83 85 -239 224 -311 277 -20 15 -67 42 -105 61 -196 98 -345 65 -423 -95 -39 -81 -51 -138 -58 -285 l-7 -127 -65 67 c-311 322 -503 463 -674 495 -67 12 -96 13 -144 1z m478 -695 c80 -13 130 -50 165 -123 22 -44 12 -82 -28 -109 -46 -32 -88 -38 -157 -23 l-60 13 0 140 c0 133 1 139 18 125 9 -9 37 -19 62 -23z m641 -250 c62 -84 63 -85 180 -261 168 -254 244 -389 310 -559 11 -27 26 -63 34 -80 24 -53 40 -152 29 -182 -18 -52 -77 -42 -135 21 -49 53 -111 142 -147 208 -67 125 -103 198 -132 268 -17 41 -35 84 -40 95 -43 91 -169 508 -170 558 0 23 10 14 71 -68z"/>
<path d="M4700 4710 l0 -870 80 0 80 0 0 98 0 97 38 -40 c54 -57 88 -82 162 -119 83 -43 147 -56 268 -56 113 0 190 17 281 62 113 56 223 169 284 292 39 78 77 242 77 331 0 95 -36 243 -81 335 -78 157 -242 292 -404 331 -78 19 -259 16 -330 -5 -92 -27 -171 -74 -236 -139 l-59 -59 0 306 0 306 -80 0 -80 0 0 -870z m804 271 c114 -52 222 -177 263 -306 21 -63 27 -192 13 -272 -18 -110 -68 -203 -153 -288 -98 -98 -172 -129 -307 -129 -91 -1 -100 1 -172 37 -170 83 -288 278 -288 472 0 230 152 448 360 516 14 5 68 7 120 5 82 -2 105 -7 164 -35z"/>
<path d="M3050 5174 c-229 -49 -435 -264 -484 -506 -20 -98 -20 -237 -1 -336 47 -231 245 -453 454 -507 141 -36 342 -14 458 51 222 125 353 351 353 608 0 150 -36 284 -107 395 -155 244 -404 353 -673 295z m321 -195 c126 -61 227 -185 264 -324 20 -77 20 -243 0 -320 -76 -291 -398 -446 -648 -312 -73 39 -172 143 -204 217 -13 30 -28 62 -33 72 -5 9 -14 55 -21 102 -33 233 76 462 263 557 80 40 119 49 219 46 74 -3 95 -8 160 -38z"/>
<path d="M4137 5180 c-102 -18 -196 -89 -250 -188 -28 -52 -57 -161 -57 -219 l0 -33 83 0 83 0 11 67 c14 78 48 133 110 177 100 70 252 28 299 -83 18 -40 21 -142 6 -182 -26 -67 -97 -117 -267 -184 -196 -79 -274 -176 -274 -345 -1 -121 38 -211 125 -289 74 -65 133 -86 244 -86 117 0 177 22 245 90 59 59 88 123 100 218 l7 57 -88 0 -89 0 -13 -52 c-20 -88 -88 -141 -178 -141 -66 0 -135 45 -158 104 -21 53 -20 126 2 169 26 49 109 102 211 135 202 65 279 134 320 287 19 68 10 200 -18 272 -36 92 -126 177 -221 211 -52 18 -172 26 -233 15z"/>
<path d="M1340 4290 l0 -870 85 0 85 0 0 385 0 385 380 0 380 0 0 -385 0 -385 85 0 85 0 0 870 0 871 -82 -3 -83 -3 -3 -392 -2 -393 -380 0 -380 0 0 395 0 395 -85 0 -85 0 0 -870z"/>
<path d="M8045 4750 c-17 -18 -16 -21 8 -62 32 -55 126 -144 172 -163 41 -18 64 -19 101 -5 l27 11 -24 16 c-13 9 -26 19 -29 22 -3 4 -36 32 -75 63 -38 31 -88 75 -110 97 -21 23 -42 41 -45 41 -4 0 -15 -9 -25 -20z"/>
<path d="M6050 3560 l0 -140 85 0 85 0 0 140 0 140 -85 0 -85 0 0 -140z"/>
<path d="M5035 3501 c-65 -37 -124 -102 -160 -176 -38 -76 -46 -208 -20 -297 33 -116 147 -229 265 -264 86 -25 220 -16 295 20 158 78 246 231 231 406 -11 132 -93 258 -206 315 -46 23 -59 25 -202 25 -150 0 -154 -1 -203 -29z"/>
</g>
<g id="layer102" fill="#2171bd" stroke="none">
<path d="M5346 7138 c34 -188 120 -407 220 -557 27 -40 56 -84 64 -97 10 -16 24 -24 44 -24 27 0 28 1 14 18 -15 17 -97 134 -113 162 -5 8 13 -4 39 -27 81 -71 147 -92 177 -57 17 21 14 85 -6 123 -8 17 -12 31 -9 31 13 0 104 -62 117 -79 27 -36 116 -101 166 -120 72 -29 153 -28 181 1 11 12 20 28 20 36 0 16 -75 92 -90 92 -18 0 -10 -22 15 -42 46 -36 26 -78 -37 -78 -84 0 -186 65 -231 149 -32 58 -34 87 -7 101 15 8 27 7 47 -4 42 -22 98 -76 128 -123 46 -72 81 -50 46 28 -25 54 -27 97 -5 106 27 10 78 -24 163 -110 60 -59 81 -87 81 -107 0 -33 26 -70 50 -70 28 0 33 16 14 51 l-16 32 33 -7 c19 -3 36 -11 37 -16 2 -6 15 -10 28 -10 28 0 33 30 9 50 -25 21 -75 116 -75 143 0 17 9 32 24 43 23 14 28 14 62 -2 20 -10 83 -64 140 -121 121 -119 178 -153 271 -161 126 -10 156 68 51 133 -23 14 -28 15 -28 3 0 -8 9 -23 20 -33 24 -22 26 -60 4 -69 -86 -33 -249 62 -290 170 -17 44 -17 46 3 66 l21 20 51 -28 c34 -19 66 -50 97 -92 30 -41 52 -62 63 -59 18 4 18 1 -9 80 -36 103 -6 124 83 58 29 -21 75 -64 102 -95 48 -53 75 -69 75 -45 0 16 -176 186 -212 205 -35 18 -85 21 -100 6 -6 -6 -14 -27 -17 -47 l-6 -35 -27 24 c-45 42 -91 66 -129 66 -41 0 -56 -13 -61 -53 l-3 -29 -48 38 c-57 45 -140 59 -170 29 -27 -26 -22 -101 11 -160 l28 -50 -32 3 c-24 3 -51 24 -115 89 -95 96 -148 134 -190 135 -39 1 -57 -17 -61 -60 l-3 -37 -40 36 c-52 47 -76 59 -119 59 -48 0 -74 -36 -59 -83 l10 -33 -45 23 c-25 13 -50 23 -56 23 -6 0 -21 11 -33 24 -26 28 -82 56 -110 56 -40 0 -69 -60 -42 -87 6 -6 37 -8 78 -5 l68 4 27 -35 c15 -19 30 -51 33 -71 5 -31 2 -37 -18 -44 -71 -27 -193 86 -265 245 -38 83 -84 240 -84 286 0 20 -7 30 -26 37 -35 14 -34 14 -28 -22z m312 -357 c9 -5 2 -10 -24 -14 -41 -7 -50 -4 -39 12 7 13 45 14 63 2z"/>
<path d="M4193 6829 c-35 -22 -59 -82 -46 -115 4 -12 -15 -1 -47 27 -96 81 -155 98 -201 58 -31 -27 -31 -88 -1 -153 12 -25 22 -48 22 -51 0 -3 -16 -5 -36 -5 -51 0 -39 -24 16 -30 41 -5 44 -8 82 -75 22 -38 41 -70 41 -71 1 -1 14 -4 30 -8 37 -9 35 4 -13 80 -22 35 -40 67 -40 70 0 4 34 4 76 1 55 -4 74 -2 71 6 -2 8 -33 13 -80 15 -73 3 -77 4 -95 35 -50 81 -53 167 -6 167 42 0 85 -29 184 -125 52 -50 106 -99 120 -108 30 -21 120 -23 120 -4 0 25 -21 36 -45 25 -18 -8 -32 -6 -62 8 -103 51 -115 214 -14 214 70 0 120 -110 70 -153 -21 -18 -22 -38 -1 -44 6 -3 21 6 34 19 38 38 81 30 167 -30 58 -40 82 -52 112 -52 41 0 52 8 39 29 -5 9 -17 12 -31 8 -59 -16 -156 68 -166 144 -10 74 48 63 140 -27 50 -49 58 -63 77 -131 35 -126 103 -268 167 -348 57 -70 98 -98 113 -75 14 23 1 69 -47 165 -43 86 -146 248 -183 290 -38 43 -34 166 6 182 29 11 102 -37 170 -111 95 -104 128 -126 184 -126 54 0 63 6 49 31 -8 15 -14 17 -36 8 -53 -20 -119 21 -142 90 -16 49 -14 75 10 105 36 45 102 29 134 -34 22 -43 18 -71 -12 -97 -24 -19 -26 -24 -13 -32 10 -7 21 -6 35 5 55 40 106 38 154 -7 15 -14 26 -18 33 -11 6 6 2 17 -14 32 -30 29 -61 40 -109 40 -37 0 -39 2 -39 31 0 50 -37 104 -92 134 -44 24 -53 26 -79 15 -42 -18 -69 -56 -69 -98 l0 -35 -42 37 c-62 53 -120 80 -152 72 -30 -8 -56 -56 -56 -105 l0 -29 -57 55 c-62 59 -87 73 -133 73 -21 0 -35 -8 -46 -26 -16 -24 -16 -29 -2 -75 l16 -49 -33 0 c-30 0 -33 3 -38 40 -13 99 -126 174 -194 129z m614 -361 c92 -146 104 -168 129 -228 14 -34 23 -67 21 -73 -8 -26 -122 149 -157 245 -19 53 -39 118 -36 118 2 0 21 -28 43 -62z"/>
<path d="M7440 6802 c-36 -37 -46 -101 -32 -207 13 -102 31 -154 99 -293 62 -128 110 -185 151 -180 44 5 42 58 -8 159 -55 114 -78 151 -162 259 -33 42 -38 55 -38 102 0 36 7 69 23 98 19 39 26 45 52 44 43 -2 97 -42 195 -143 102 -107 164 -142 261 -149 59 -4 69 -2 89 18 34 34 16 85 -41 114 -35 18 -41 0 -9 -29 24 -22 26 -60 4 -69 -47 -18 -113 -3 -179 42 -99 67 -156 184 -100 206 37 14 156 -82 187 -149 11 -24 41 -34 52 -17 2 4 -7 30 -20 57 -30 62 -29 109 3 113 28 4 125 -69 185 -138 40 -46 68 -63 68 -41 0 13 -120 132 -181 181 -39 31 -59 40 -90 40 -42 0 -59 -18 -59 -65 l0 -27 -35 31 c-51 45 -91 63 -133 59 -30 -2 -40 -9 -53 -35 l-16 -33 -24 21 c-33 30 -98 59 -132 59 -18 0 -39 -10 -57 -28z m143 -452 c35 -59 77 -161 77 -187 0 -11 -30 1 -47 20 -44 47 -143 279 -143 333 0 12 57 -73 113 -166z"/>
<path d="M8373 6820 c-23 -9 -31 -34 -15 -44 5 -3 27 0 50 6 58 14 87 5 106 -36 20 -42 20 -76 1 -123 -14 -34 -16 -35 -33 -19 -36 32 -58 13 -24 -20 9 -10 17 -33 18 -51 1 -19 9 -42 18 -51 15 -15 17 -15 32 0 15 14 15 19 1 46 -14 29 -13 32 14 61 49 54 56 131 17 178 -32 39 95 -53 140 -101 122 -129 204 -176 306 -176 63 0 86 16 86 60 0 21 -10 37 -37 59 -21 17 -41 31 -45 31 -16 0 -7 -23 17 -42 46 -36 27 -78 -36 -78 -84 0 -175 56 -229 140 -35 55 -39 95 -10 110 15 8 28 7 52 -6 40 -21 112 -94 133 -134 17 -32 42 -39 51 -15 3 8 -3 30 -15 48 -25 41 -28 105 -5 114 24 9 62 -16 142 -92 74 -70 74 -71 97 -162 13 -51 40 -127 59 -169 20 -42 36 -79 36 -82 0 -11 53 -86 84 -119 53 -58 108 -38 90 34 -22 85 -178 349 -229 385 -5 4 -9 39 -8 77 2 75 22 126 56 137 43 14 171 -87 258 -203 30 -40 46 -53 66 -53 25 0 25 1 9 23 -33 45 -97 182 -94 202 8 51 80 12 194 -104 38 -39 77 -71 86 -71 23 0 23 3 -6 64 -35 73 -43 124 -22 132 24 9 115 -56 174 -123 68 -79 127 -116 182 -117 34 -1 45 3 45 14 0 11 -11 15 -40 16 -26 0 -54 10 -81 27 -63 42 -108 149 -69 163 29 11 62 -6 125 -64 58 -54 64 -64 81 -131 17 -69 103 -270 119 -281 4 -3 15 -21 25 -40 23 -46 104 -122 124 -118 29 6 16 78 -30 169 -38 76 -165 274 -196 307 -16 16 -17 125 -3 153 23 41 78 14 186 -93 49 -48 84 -76 88 -69 7 11 -65 96 -114 136 -14 11 -33 28 -42 37 -26 26 -89 58 -114 58 -31 0 -65 -42 -71 -88 l-5 -40 -42 40 c-57 56 -95 78 -136 78 -43 0 -60 -15 -60 -52 l0 -28 -27 17 c-16 10 -36 25 -46 34 -10 9 -35 22 -57 29 -36 12 -42 11 -61 -6 -17 -15 -20 -27 -17 -64 l5 -46 -22 21 c-71 68 -119 95 -169 95 -43 0 -61 -26 -51 -77 l6 -35 -46 43 c-131 124 -234 117 -255 -15 -5 -32 -7 -64 -4 -70 3 -6 -14 9 -39 34 -97 98 -144 131 -189 132 -36 1 -58 -23 -58 -64 0 -32 -11 -36 -31 -11 -76 92 -199 97 -199 8 l0 -29 -27 26 c-41 38 -82 56 -154 67 -75 13 -87 13 -116 1z m913 -342 c15 -24 32 -47 38 -54 19 -19 106 -198 112 -231 7 -38 -12 -45 -39 -15 -20 22 -78 134 -99 192 -23 62 -48 150 -43 150 3 0 17 -19 31 -42z m1015 -10 c113 -177 162 -278 145 -295 -20 -20 -124 155 -165 275 -31 92 -29 95 20 20z"/>
<path d="M10525 6820 c-10 -16 23 -115 45 -135 28 -25 45 -9 30 29 -5 15 -10 42 -10 60 0 17 -5 37 -12 44 -15 15 -45 16 -53 2z"/>
<path d="M10583 6590 c7 -83 44 -196 109 -332 45 -95 55 -108 90 -124 29 -13 41 -15 50 -6 9 9 6 19 -14 39 -80 86 -159 237 -194 371 -32 121 -48 142 -41 52z"/>
<path d="M1199 6243 c-105 -108 -197 -224 -304 -383 -93 -138 -122 -187 -204 -345 -123 -240 -212 -482 -281 -763 -63 -258 -88 -483 -97 -849 -6 -252 -4 -279 33 -583 53 -432 195 -893 402 -1305 69 -137 182 -337 209 -370 4 -5 26 -37 47 -70 153 -235 402 -522 615 -707 179 -156 203 -175 358 -281 492 -334 1028 -524 1633 -578 151 -13 619 -7 735 10 145 21 382 60 433 71 44 10 52 15 51 33 0 24 -33 154 -40 161 -2 2 -47 -5 -99 -15 -701 -142 -1369 -95 -1965 138 -419 164 -777 399 -1116 733 -202 200 -406 463 -563 725 -62 105 -237 463 -266 545 -13 36 -26 70 -30 75 -12 16 -85 249 -124 390 -59 216 -109 521 -125 756 -11 166 1 528 23 690 20 146 63 371 87 454 163 566 377 959 746 1368 63 71 113 131 110 134 -3 3 -34 12 -69 19 -131 30 -115 34 -199 -53z"/>
<path d="M5822 5810 c-85 -20 -153 -107 -167 -215 -21 -162 87 -399 259 -571 87 -87 158 -137 276 -193 72 -34 80 -36 182 -36 104 0 108 1 135 28 25 24 28 35 28 90 -1 78 -22 123 -89 189 -64 62 -114 88 -182 95 -49 5 -54 4 -54 -14 0 -29 39 -60 85 -67 66 -11 108 -35 145 -83 38 -51 46 -108 19 -135 -27 -28 -77 -48 -118 -48 -52 0 -175 39 -228 73 -57 36 -166 139 -209 198 -42 57 -107 187 -123 244 -17 62 -13 164 8 210 24 54 87 109 144 124 43 12 53 11 130 -12 88 -28 166 -73 281 -165 83 -66 257 -232 327 -314 46 -52 51 -63 64 -140 15 -92 72 -322 85 -347 5 -9 19 -45 31 -81 12 -36 32 -89 45 -118 13 -29 24 -55 24 -58 0 -8 97 -223 129 -286 131 -257 267 -445 353 -489 43 -22 105 -24 131 -4 27 20 39 86 28 155 -21 130 -118 344 -274 600 -80 132 -228 354 -247 370 -3 3 -17 21 -30 40 -13 19 -56 75 -95 125 l-70 89 0 181 c1 206 15 284 70 370 25 38 45 56 84 75 l52 24 66 -18 c84 -22 130 -45 223 -114 105 -77 433 -410 496 -502 54 -81 92 -104 161 -98 l33 3 -47 70 c-82 123 -189 342 -208 428 -50 224 48 255 292 94 54 -36 116 -80 137 -99 155 -131 386 -366 428 -435 22 -37 43 -57 68 -67 46 -18 110 -31 110 -21 0 13 -55 105 -62 105 -5 0 -8 4 -8 8 0 4 -32 66 -71 138 -39 71 -82 156 -96 189 -14 33 -28 65 -33 70 -13 18 -20 64 -11 69 7 5 113 -67 169 -114 22 -20 259 -185 294 -205 18 -11 58 -34 88 -52 102 -60 220 -112 272 -119 34 -5 48 -2 68 14 22 18 25 27 23 79 -1 32 -15 127 -32 211 -37 184 -38 220 -9 258 33 42 39 45 83 40 97 -12 238 -119 478 -362 77 -79 160 -174 185 -213 40 -61 50 -71 88 -80 24 -6 57 -11 73 -11 l31 0 -29 43 c-94 141 -181 306 -215 409 -31 91 -36 197 -10 222 24 24 61 30 107 16 44 -12 178 -85 237 -129 72 -52 249 -212 360 -325 260 -263 301 -299 410 -359 96 -52 166 -70 266 -65 76 3 86 6 111 31 25 24 28 35 28 90 -1 78 -22 123 -89 189 -64 62 -114 88 -182 95 -49 5 -54 4 -54 -14 0 -29 39 -60 85 -67 65 -11 108 -35 142 -79 58 -76 52 -124 -20 -167 -89 -55 -273 12 -425 155 -173 161 -266 413 -203 550 24 54 87 109 144 124 43 12 53 11 129 -12 136 -43 273 -141 473 -342 78 -77 162 -164 189 -192 52 -57 76 -67 76 -30 0 29 -292 334 -433 455 -215 182 -377 256 -518 237 -175 -24 -249 -245 -154 -460 14 -32 24 -59 22 -61 -1 -2 -41 34 -87 79 -145 140 -286 256 -377 309 -187 109 -287 123 -358 48 -24 -25 -29 -41 -33 -90 -4 -58 11 -165 28 -199 4 -9 19 -44 33 -78 l25 -62 -56 61 c-84 90 -236 224 -316 275 -94 62 -178 95 -247 96 -142 4 -176 -111 -115 -388 42 -196 34 -223 -57 -191 -70 25 -308 170 -437 268 -112 85 -207 165 -286 240 -99 95 -122 104 -136 53 -14 -54 32 -224 98 -355 54 -108 48 -106 -84 22 -338 327 -596 459 -710 363 -39 -33 -55 -93 -47 -169 7 -60 40 -181 54 -201 10 -12 22 -45 17 -45 -2 0 -41 39 -87 86 -83 85 -239 224 -311 277 -20 15 -67 42 -105 61 -196 98 -345 65 -423 -95 -39 -81 -51 -138 -58 -284 l-7 -127 -125 127 c-270 274 -455 405 -614 434 -67 12 -96 13 -144 1z m1119 -945 c113 -152 281 -406 356 -540 33 -57 111 -221 134 -280 11 -27 26 -63 34 -80 24 -53 40 -152 29 -182 -17 -50 -76 -43 -131 15 -89 95 -239 355 -298 517 -10 28 -21 55 -25 60 -24 36 -153 452 -166 535 -9 53 -4 50 67 -45z"/>
<path d="M8045 4750 c-17 -18 -16 -21 8 -62 32 -55 126 -144 172 -163 41 -18 64 -19 101 -5 l27 11 -24 17 c-28 20 -38 27 -149 122 -47 40 -89 79 -93 86 -11 19 -21 18 -42 -6z"/>
<path d="M10357 4759 c-37 -21 -11 -76 78 -162 65 -64 127 -93 180 -83 19 4 35 11 35 16 0 4 -33 33 -72 63 -40 30 -102 82 -138 115 -53 48 -69 58 -83 51z"/>
<path d="M5080 3521 c-78 -25 -160 -103 -206 -196 -37 -77 -46 -213 -19 -296 38 -121 148 -231 263 -264 41 -12 83 -16 148 -13 80 3 100 8 159 38 116 59 196 167 218 296 28 164 -56 342 -197 417 -36 19 -59 22 -191 24 -82 1 -161 -2 -175 -6z"/>
</g>
<g id="layer103" fill="#00aeee" stroke="none">
<path d="M5345 7148 c2 -13 11 -53 20 -91 35 -158 114 -345 201 -476 27 -40 56 -84 64 -97 10 -16 24 -24 44 -24 27 0 28 1 14 18 -15 17 -97 134 -113 162 -5 8 13 -4 39 -27 81 -71 147 -92 177 -57 17 21 14 85 -6 123 -8 17 -12 31 -9 31 13 0 104 -62 117 -79 27 -36 116 -101 166 -120 72 -29 153 -28 181 1 11 12 20 28 20 36 0 16 -75 92 -90 92 -18 0 -10 -22 15 -42 48 -37 26 -78 -41 -78 -81 0 -178 62 -225 144 -34 60 -37 91 -9 106 15 8 27 7 47 -4 42 -22 98 -76 128 -123 46 -72 81 -50 46 28 -25 54 -27 97 -5 106 27 10 78 -24 163 -110 63 -63 81 -87 81 -109 0 -44 56 -88 75 -58 3 5 -1 23 -10 40 -14 28 -14 30 2 30 10 0 31 -7 47 -15 15 -8 35 -15 42 -15 19 0 18 34 -1 50 -25 21 -75 116 -75 143 0 17 9 32 24 43 23 14 28 14 62 -2 20 -10 83 -64 140 -121 121 -119 178 -153 271 -161 126 -10 156 68 51 133 -23 14 -28 15 -28 3 0 -8 9 -23 20 -33 24 -22 26 -60 4 -69 -86 -33 -249 62 -290 170 -17 44 -17 46 3 66 l21 20 51 -28 c34 -19 66 -50 97 -91 42 -59 61 -72 77 -57 3 4 -2 23 -12 43 -36 72 -36 131 0 131 27 0 114 -67 174 -134 48 -53 75 -69 75 -45 0 16 -176 186 -212 205 -35 18 -85 21 -100 6 -6 -6 -14 -27 -17 -47 l-6 -35 -27 24 c-45 42 -91 66 -129 66 -41 0 -56 -13 -61 -53 l-3 -29 -48 38 c-57 45 -140 59 -170 29 -27 -26 -22 -101 11 -160 l28 -50 -32 3 c-24 3 -52 25 -120 94 -145 147 -236 173 -246 68 l-3 -35 -40 36 c-52 47 -76 59 -119 59 -48 0 -74 -36 -59 -83 l10 -33 -45 23 c-25 13 -50 23 -56 23 -6 0 -21 11 -33 24 -26 28 -82 56 -110 56 -40 0 -69 -60 -42 -87 6 -6 37 -8 78 -5 l68 4 27 -35 c15 -19 30 -51 33 -71 5 -31 2 -37 -18 -44 -74 -28 -194 86 -269 253 -35 77 -80 234 -80 278 0 20 -7 30 -26 37 -34 13 -35 13 -29 -12z m313 -367 c9 -5 2 -10 -24 -14 -41 -7 -50 -4 -39 12 7 13 45 14 63 2z"/>
<path d="M4193 6829 c-35 -22 -59 -82 -46 -115 4 -12 -15 -1 -47 27 -96 81 -155 98 -201 58 -31 -27 -31 -88 -1 -153 12 -25 22 -48 22 -51 0 -3 -16 -5 -36 -5 -51 0 -39 -24 16 -30 41 -5 44 -8 82 -75 22 -38 41 -70 41 -71 1 -1 14 -4 30 -8 37 -9 35 4 -13 80 -22 35 -40 66 -40 70 0 4 34 4 75 2 53 -4 75 -2 72 6 -2 6 -36 12 -80 14 -73 3 -77 4 -95 35 -50 81 -53 167 -6 167 42 0 85 -29 184 -125 52 -50 106 -99 120 -108 30 -21 120 -23 120 -4 0 25 -21 36 -45 25 -18 -8 -32 -6 -62 8 -105 52 -114 214 -12 214 69 0 118 -110 68 -153 -21 -18 -22 -38 -1 -44 6 -3 21 6 34 19 37 37 82 30 160 -25 65 -46 120 -66 152 -54 27 11 7 40 -23 34 -67 -13 -171 78 -171 150 0 66 56 53 143 -33 50 -48 58 -62 77 -130 11 -42 32 -102 46 -133 15 -31 33 -73 41 -93 8 -21 19 -38 24 -38 5 0 9 -6 9 -12 0 -18 85 -124 115 -144 34 -23 56 -5 48 39 -11 62 -123 266 -208 378 -31 41 -45 70 -49 105 -8 55 5 101 30 111 29 11 102 -37 170 -111 95 -104 128 -126 184 -126 54 0 63 6 49 31 -8 15 -14 17 -36 8 -53 -20 -119 21 -142 90 -16 49 -14 75 10 105 36 45 102 29 134 -34 22 -43 18 -71 -12 -97 -24 -19 -26 -24 -13 -32 10 -7 21 -6 35 5 55 40 106 38 154 -7 15 -14 26 -18 33 -11 6 6 2 17 -14 32 -30 29 -61 40 -109 40 -37 0 -39 2 -39 31 0 50 -37 104 -92 134 -44 24 -53 26 -79 15 -42 -18 -69 -56 -69 -98 l0 -35 -42 37 c-62 53 -120 80 -152 72 -30 -8 -56 -56 -56 -105 l0 -29 -57 55 c-62 59 -87 73 -133 73 -21 0 -35 -8 -46 -26 -16 -24 -16 -29 -2 -75 l16 -49 -33 0 c-30 0 -33 3 -38 40 -13 99 -126 174 -194 129z m614 -361 c92 -146 104 -168 129 -228 14 -34 23 -67 21 -73 -8 -26 -122 149 -157 245 -19 53 -39 118 -36 118 2 0 21 -28 43 -62z"/>
<path d="M7440 6802 c-36 -37 -46 -101 -32 -207 14 -103 31 -155 100 -294 64 -130 109 -184 150 -179 44 5 42 58 -8 159 -55 114 -78 151 -162 259 -34 43 -38 54 -38 106 0 80 33 140 76 138 42 -2 97 -42 194 -143 95 -99 162 -140 245 -148 71 -7 104 2 115 33 14 35 -5 72 -47 96 -38 21 -47 3 -13 -27 24 -22 26 -60 4 -69 -47 -18 -113 -3 -179 42 -99 67 -156 184 -100 206 37 14 156 -82 187 -149 11 -24 41 -34 52 -17 2 4 -7 30 -20 57 -30 62 -29 109 3 113 28 4 125 -69 185 -138 40 -46 68 -63 68 -41 0 13 -120 132 -181 181 -39 31 -59 40 -90 40 -42 0 -59 -18 -59 -65 l0 -27 -35 31 c-51 45 -91 63 -133 59 -30 -2 -40 -9 -53 -35 l-16 -33 -24 21 c-33 30 -98 59 -132 59 -18 0 -39 -10 -57 -28z m143 -452 c35 -59 77 -161 77 -187 0 -11 -30 1 -47 20 -44 47 -143 279 -143 333 0 12 57 -73 113 -166z"/>
<path d="M8373 6820 c-23 -9 -31 -34 -15 -44 5 -3 27 0 50 6 58 14 87 5 106 -36 20 -42 20 -76 1 -123 -14 -34 -16 -35 -33 -19 -36 32 -58 13 -24 -20 9 -10 17 -33 18 -51 1 -19 9 -42 18 -51 15 -15 17 -15 32 0 15 15 15 19 1 47 -14 28 -14 32 7 53 50 50 63 125 31 174 -15 23 -14 23 33 -6 27 -16 72 -54 100 -84 122 -129 204 -176 306 -176 63 0 86 16 86 60 0 21 -10 37 -37 59 -21 17 -41 31 -45 31 -16 0 -7 -23 17 -42 46 -36 27 -78 -36 -78 -84 0 -175 56 -229 140 -35 55 -39 95 -10 110 15 8 28 7 52 -6 40 -21 112 -94 133 -134 17 -32 42 -39 51 -15 3 8 -3 30 -15 48 -25 41 -28 105 -5 114 24 9 62 -16 142 -92 74 -70 74 -71 97 -162 13 -51 40 -127 59 -169 20 -42 36 -79 36 -82 0 -11 53 -86 84 -119 53 -58 108 -38 90 34 -22 85 -178 349 -229 385 -5 4 -9 39 -8 77 2 75 22 126 56 137 43 14 171 -87 258 -203 30 -40 46 -53 66 -53 25 0 25 1 9 23 -33 45 -97 182 -94 202 8 51 80 12 194 -104 38 -39 77 -71 86 -71 23 0 23 3 -6 64 -35 73 -43 124 -22 132 24 9 115 -56 174 -123 68 -79 127 -116 182 -117 34 -1 45 3 45 14 0 11 -11 15 -40 16 -26 0 -54 10 -81 27 -63 42 -108 149 -69 163 29 12 63 -6 127 -68 61 -58 67 -68 82 -132 15 -64 99 -265 116 -276 4 -3 15 -21 25 -40 23 -46 104 -122 124 -118 29 6 16 78 -30 169 -38 76 -165 274 -196 307 -16 16 -17 125 -3 153 23 41 78 14 186 -93 49 -48 84 -76 88 -69 7 11 -65 96 -114 136 -14 11 -33 28 -42 37 -26 26 -89 58 -114 58 -31 0 -65 -43 -71 -89 l-6 -42 -46 47 c-50 50 -94 74 -139 74 -36 0 -52 -16 -52 -52 l0 -28 -27 17 c-16 10 -36 25 -45 33 -9 9 -33 22 -53 29 -31 11 -39 10 -62 -4 -23 -15 -25 -22 -21 -64 l5 -47 -22 21 c-71 68 -119 95 -169 95 -43 0 -61 -26 -51 -77 l6 -35 -46 43 c-87 82 -163 108 -213 73 -30 -20 -41 -52 -43 -115 l-2 -52 -42 44 c-90 93 -142 130 -187 131 -36 1 -58 -23 -58 -64 0 -32 -11 -36 -31 -11 -76 92 -199 97 -199 8 l0 -29 -27 26 c-40 37 -79 54 -154 67 -76 13 -86 13 -116 1z m913 -342 c15 -24 32 -47 38 -54 19 -19 106 -198 112 -231 7 -38 -12 -45 -39 -15 -20 22 -78 134 -99 192 -23 62 -48 150 -43 150 3 0 17 -19 31 -42z m1015 -10 c113 -177 162 -278 145 -295 -20 -20 -124 155 -165 275 -31 92 -29 95 20 20z"/>
<path d="M10526 6821 c-10 -15 21 -113 43 -134 28 -28 46 -12 31 27 -5 15 -10 42 -10 60 0 17 -5 37 -12 44 -14 14 -44 16 -52 3z"/>
<path d="M10583 6590 c7 -83 44 -196 109 -332 45 -95 55 -108 90 -124 29 -13 41 -15 50 -6 9 9 6 19 -14 39 -79 86 -157 234 -194 370 -33 122 -48 141 -41 53z"/>
<path d="M1175 6218 c-33 -35 -76 -83 -95 -108 -19 -24 -47 -58 -61 -75 -38 -43 -209 -299 -248 -370 -266 -483 -396 -909 -441 -1435 -19 -225 -24 -557 -11 -681 36 -329 52 -431 104 -644 32 -131 89 -331 103 -365 4 -8 21 -55 39 -105 66 -179 187 -443 278 -600 47 -83 112 -190 117 -195 3 -3 23 -32 44 -65 200 -307 516 -646 823 -882 271 -208 618 -394 943 -506 199 -69 314 -98 535 -137 248 -43 409 -53 710 -47 265 6 284 8 555 51 240 38 260 44 259 69 0 24 -33 154 -40 161 -2 2 -47 -5 -99 -15 -632 -128 -1279 -99 -1800 79 -212 73 -296 108 -475 199 -477 243 -917 640 -1246 1128 -66 96 -98 149 -183 297 -38 65 -183 374 -206 438 -13 36 -26 70 -30 75 -12 16 -85 249 -124 390 -19 72 -47 193 -60 270 -14 77 -32 177 -40 221 -30 167 -38 346 -27 609 6 138 18 295 25 350 20 146 64 370 86 445 10 36 28 99 40 140 11 41 25 84 30 95 6 11 21 52 34 90 76 223 265 574 422 783 20 26 45 60 57 76 27 36 137 164 194 226 24 25 43 50 43 56 0 6 -35 16 -77 22 -43 7 -87 15 -98 18 -16 4 -35 -10 -80 -58z"/>
<path d="M5822 5810 c-119 -28 -188 -167 -163 -330 7 -41 16 -79 20 -84 5 -6 16 -34 25 -62 29 -90 114 -213 216 -314 79 -79 113 -104 200 -150 134 -71 159 -78 255 -79 127 -1 173 39 161 141 -7 67 -31 112 -90 170 -64 62 -114 88 -182 95 -49 5 -54 4 -54 -14 0 -29 39 -60 85 -67 66 -11 108 -35 145 -83 25 -33 35 -56 35 -83 0 -111 -178 -132 -343 -40 -63 36 -174 139 -228 212 -42 56 -107 186 -123 243 -17 62 -13 164 8 210 24 54 87 109 144 124 43 12 53 11 130 -12 88 -28 166 -73 281 -165 83 -66 257 -232 327 -314 46 -52 51 -63 64 -140 15 -92 72 -322 85 -347 5 -9 19 -45 31 -81 12 -36 32 -89 45 -118 13 -29 24 -55 24 -58 0 -8 97 -223 129 -286 131 -257 267 -445 353 -489 43 -22 105 -24 131 -4 80 60 4 334 -181 644 -31 53 -62 105 -68 116 -48 85 -224 348 -244 365 -3 3 -17 21 -30 40 -13 19 -56 75 -95 125 l-70 89 0 181 c0 147 4 193 19 250 28 102 72 165 135 194 47 22 55 23 103 12 76 -17 148 -52 236 -117 107 -79 435 -411 498 -504 54 -81 92 -104 161 -98 l33 3 -36 54 c-101 150 -195 340 -220 446 -28 121 -4 195 62 195 92 0 283 -120 478 -300 134 -124 286 -285 318 -337 22 -37 43 -57 68 -67 46 -18 110 -31 110 -21 0 13 -55 105 -62 105 -5 0 -8 4 -8 8 0 4 -32 66 -71 138 -39 71 -82 156 -96 189 -14 33 -28 65 -33 70 -13 18 -20 64 -11 69 7 5 113 -67 169 -114 22 -20 259 -185 294 -205 18 -11 58 -34 88 -52 102 -60 220 -112 272 -119 34 -5 48 -2 68 14 22 18 25 27 23 79 -1 32 -15 126 -32 210 -37 183 -39 220 -9 259 33 42 39 45 83 40 96 -12 240 -121 477 -361 79 -79 159 -171 185 -212 41 -63 51 -73 89 -82 24 -6 57 -11 73 -11 l31 0 -29 43 c-94 141 -181 306 -215 409 -27 80 -35 183 -16 218 23 42 128 31 217 -24 164 -101 297 -211 493 -410 260 -263 301 -299 410 -359 96 -52 166 -70 266 -65 76 3 86 6 111 31 25 24 28 35 28 90 -1 78 -22 123 -89 189 -64 62 -114 88 -182 95 -49 5 -54 4 -54 -14 0 -29 39 -60 85 -67 65 -11 108 -35 142 -79 58 -76 52 -124 -20 -167 -89 -55 -273 12 -425 155 -173 161 -266 413 -203 550 24 54 87 109 144 124 43 12 53 11 129 -12 136 -43 274 -142 473 -342 78 -77 162 -164 189 -192 52 -57 76 -67 76 -30 0 17 -49 74 -171 200 -245 253 -397 378 -539 445 -274 128 -470 -4 -430 -289 6 -38 14 -77 20 -87 15 -26 41 -95 37 -98 -2 -2 -41 34 -87 79 -364 353 -620 477 -735 357 -24 -25 -30 -41 -33 -90 -4 -60 11 -167 28 -199 5 -9 20 -43 32 -76 l24 -60 -106 105 c-203 204 -338 295 -474 321 -71 13 -121 -4 -155 -55 -23 -36 -26 -48 -25 -125 1 -52 12 -133 28 -204 43 -196 34 -225 -57 -193 -29 10 -80 35 -115 57 -35 21 -65 39 -67 39 -4 0 -209 139 -270 183 -81 59 -189 150 -272 230 -98 95 -121 103 -135 52 -14 -54 32 -224 98 -355 54 -107 48 -106 -87 24 -341 328 -593 457 -708 361 -37 -32 -54 -99 -45 -174 7 -57 40 -178 53 -196 5 -5 11 -18 14 -28 10 -27 -6 -14 -91 75 -77 79 -234 219 -304 271 -20 15 -67 42 -105 61 -196 99 -345 65 -423 -96 -37 -76 -51 -146 -59 -290 l-6 -117 -170 167 c-93 92 -210 198 -260 235 -176 131 -332 186 -453 157z m1119 -945 c113 -152 281 -406 356 -540 33 -57 111 -221 134 -280 11 -27 26 -63 34 -80 24 -53 40 -152 29 -182 -19 -55 -82 -41 -146 32 -85 97 -231 354 -283 500 -10 28 -21 55 -25 60 -24 36 -153 452 -166 535 -9 53 -4 50 67 -45z"/>
<path d="M8051 4751 c-20 -20 -21 -23 -5 -53 26 -50 122 -145 168 -168 48 -23 72 -25 112 -10 l27 11 -24 16 c-42 29 -213 174 -235 200 l-22 25 -21 -21z"/>
<path d="M10355 4756 c-26 -18 -14 -54 38 -115 54 -64 109 -107 153 -121 36 -12 104 -6 104 10 0 4 -33 33 -72 63 -40 30 -103 82 -139 115 -58 54 -68 60 -84 48z"/>
<path d="M5029 3495 c-57 -30 -120 -99 -156 -173 -36 -73 -44 -211 -18 -293 24 -78 79 -153 147 -204 77 -58 120 -70 249 -70 100 0 108 2 173 34 203 103 282 345 179 549 -33 66 -97 133 -153 162 -35 18 -58 20 -207 20 -158 -1 -171 -2 -214 -25z"/>
</g>


</svg>