<svg height="463pt" viewBox="-31 0 463 463.77441" width="463pt" xmlns="http://www.w3.org/2000/svg"><path d="m344.386719 143.773438c.015625 38.816406-15.683594 75.988281-43.519531 103.039062-18.3125 17.90625-28.589844 42.46875-28.480469 68.082031v20.878907h-144v-20.800782c.359375-25.273437-9.609375-49.601562-27.597657-67.359375-31.328124-29.835937-47.476562-72.242187-43.921874-115.359375 6.296874-76.941406 72.148437-135.230468 149.285156-132.136718 77.136718 3.089843 138.113281 66.457031 138.234375 143.65625zm0 0" fill="#ffd422"/><path d="m152.386719 431.773438h96c0 17.675781-14.328125 32-32 32h-32c-17.671875 0-32-14.324219-32-32zm0 0" fill="#acabb1"/><path d="m264.386719 383.773438c13.253906 0 24 10.746093 24 24 0 13.253906-10.746094 24-24 24h-128c-13.253907 0-24-10.746094-24-24 0-13.253907 10.746093-24 24-24zm0 0" fill="#787680"/><path d="m280.386719 335.773438c13.253906 0 24 10.746093 24 24 0 13.253906-10.746094 24-24 24h-160c-13.253907 0-24-10.746094-24-24 0-13.253907 10.746093-24 24-24zm0 0" fill="#898890"/><path d="m256.386719 114.253906v53.519532s-32 16-56 16-56-16-56-16v-53.519532l56 21.519532zm0 0" fill="#898890"/><path d="m134.042969 154.117188-21.65625-21.65625v-36.6875h-16v36.6875l-21.65625 21.65625 11.3125 11.3125 10.34375-10.34375v12.6875h16v-12.6875l10.34375 10.34375zm0 0" fill="#c6c5ca"/><path d="m368.386719 135.773438h32v16h-32zm0 0" fill="#ffb655"/><path d="m341.878906 52.835938 27.714844-15.996094 8 13.855468-27.714844 16zm0 0" fill="#ffb655"/><path d="m23.183594 50.703125 8-13.855469 27.710937 16-8 13.855469zm0 0" fill="#ffb655"/><path d="m.386719 135.773438h32v16h-32zm0 0" fill="#ffb655"/><path d="m23.183594 236.84375 27.714844-16 7.996093 13.859375-27.710937 15.996094zm0 0" fill="#ffb655"/><path d="m341.878906 234.703125 7.996094-13.855469 27.714844 15.996094-8 13.859375zm0 0" fill="#ffb655"/><path d="m192.386719 215.773438h16v16h-16zm0 0" fill="#ddb200"/><path d="m224.386719 215.773438h32v16h-32zm0 0" fill="#ddb200"/><path d="m144.386719 215.773438h32v16h-32zm0 0" fill="#ddb200"/><g fill="#ff9811"><path d="m392.386719 423.773438h-64v-16h56v-40h16v48c0 4.417968-3.582031 8-8 8zm0 0"/><path d="m384.386719 335.773438h16v16h-16zm0 0"/><path d="m384.386719 303.773438h16v16h-16zm0 0"/><path d="m384.386719 271.773438h16v16h-16zm0 0"/><path d="m72.386719 423.773438h-64c-4.417969 0-8-3.582032-8-8v-48h16v40h56zm0 0"/><path d="m.386719 335.773438h16v16h-16zm0 0"/><path d="m.386719 303.773438h16v16h-16zm0 0"/><path d="m.386719 271.773438h16v16h-16zm0 0"/></g><path d="m304.386719 95.773438-48 18.480468-56 21.519532-56-21.519532-48-18.480468 104-40zm0 0" fill="#acabb1"/></svg>