<?xml version="1.0" encoding="iso-8859-1"?>
<!-- Generator: Adobe Illustrator 19.0.0, SVG Export Plug-In . SVG Version: 6.00 Build 0)  -->
<svg version="1.1" id="Capa_1" xmlns="http://www.w3.org/2000/svg" xmlns:xlink="http://www.w3.org/1999/xlink" x="0px" y="0px"
	 viewBox="0 0 512 512" style="enable-background:new 0 0 512 512;" xml:space="preserve">
<g>
	<rect x="238.345" y="432.552" style="fill:#4C8056;" width="35.31" height="79.448"/>
	<path style="fill:#71C285;" d="M229.517,406.069h52.966v61.793c0,4.875-3.952,8.828-8.828,8.828h-35.31
		c-4.875,0-8.828-3.952-8.828-8.828V406.069z"/>
	<path style="fill:#95A5A5;" d="M317.793,317.793h79.448c9.739-0.029,17.627-7.916,17.655-17.655V17.655
		C414.868,7.916,406.98,0.029,397.241,0H114.759c-9.739,0.029-17.627,7.916-17.655,17.655v282.483
		c0.029,9.739,7.916,17.627,17.655,17.655H317.793z"/>
	<path style="fill:#35495E;" d="M167.724,88.276h176.552c4.875,0,8.828,3.952,8.828,8.828v88.276c0,4.875-3.952,8.828-8.828,8.828
		H167.724c-4.875,0-8.828-3.952-8.828-8.828V97.103C158.897,92.228,162.849,88.276,167.724,88.276z"/>
	<path style="fill:#BDC3C7;" d="M203.034,247.172h105.931c4.875,0,8.828,3.952,8.828,8.828v158.897c0,4.875-3.952,8.828-8.828,8.828
		H203.034c-4.875,0-8.828-3.952-8.828-8.828V256C194.207,251.125,198.159,247.172,203.034,247.172z"/>
	<g>
		<path style="fill:#7F8C8D;" d="M229.517,247.172v35.31c0,4.875-3.952,8.828-8.828,8.828s-8.828-3.952-8.828-8.828v-35.31H229.517z
			"/>
		<path style="fill:#7F8C8D;" d="M264.828,247.172v35.31c0,4.875-3.952,8.828-8.828,8.828s-8.828-3.952-8.828-8.828v-35.31H264.828z
			"/>
		<path style="fill:#7F8C8D;" d="M300.138,247.172v35.31c0,4.875-3.952,8.828-8.828,8.828s-8.828-3.952-8.828-8.828v-35.31H300.138z
			"/>
	</g>
	<path style="fill:#95A5A5;" d="M238.345,317.793h35.31c4.875,0,8.828,3.952,8.828,8.828v52.966c0,4.875-3.952,8.828-8.828,8.828
		h-35.31c-4.875,0-8.828-3.952-8.828-8.828v-52.966C229.517,321.745,233.469,317.793,238.345,317.793z"/>
	<g>
		<path style="fill:#F29C1F;" d="M194.207,88.276v17.655c0,4.875-3.952,8.828-8.828,8.828c-4.875,0-8.828-3.952-8.828-8.828V88.276
			H194.207z"/>
		<path style="fill:#F29C1F;" d="M229.517,88.276v17.655c0,4.875-3.952,8.828-8.828,8.828s-8.828-3.952-8.828-8.828V88.276H229.517z
			"/>
		<path style="fill:#F29C1F;" d="M264.828,88.276v17.655c0,4.875-3.952,8.828-8.828,8.828s-8.828-3.952-8.828-8.828V88.276H264.828z
			"/>
		<path style="fill:#F29C1F;" d="M300.138,88.276v17.655c0,4.875-3.952,8.828-8.828,8.828s-8.828-3.952-8.828-8.828V88.276H300.138z
			"/>
		<path style="fill:#F29C1F;" d="M335.448,88.276v17.655c0,4.875-3.952,8.828-8.828,8.828s-8.828-3.952-8.828-8.828V88.276H335.448z
			"/>
	</g>
	<path style="fill:#ECF0F1;" d="M279.896,152.655L262.241,135c-0.079-0.079-0.188-0.103-0.269-0.179
		c-0.752-0.73-1.631-1.318-2.593-1.735l-0.031-0.009c-0.072-0.028-0.148-0.028-0.22-0.055c-0.908-0.341-1.866-0.528-2.836-0.552
		c-0.268-0.01-0.521,0.024-0.789,0.04c-0.788,0.043-1.567,0.194-2.314,0.45c-0.266,0.08-0.527,0.174-0.783,0.28
		c-0.983,0.419-1.88,1.016-2.648,1.759l-17.655,17.655c-3.435,3.449-3.429,9.028,0.013,12.47s9.021,3.448,12.47,0.013l2.586-2.587
		v49.311c0,4.875,3.952,8.828,8.828,8.828s8.828-3.952,8.828-8.828v-49.31l2.586,2.586c3.453,3.41,9.012,3.392,12.443-0.039
		S283.306,156.109,279.896,152.655z"/>
</g>
<g>
</g>
<g>
</g>
<g>
</g>
<g>
</g>
<g>
</g>
<g>
</g>
<g>
</g>
<g>
</g>
<g>
</g>
<g>
</g>
<g>
</g>
<g>
</g>
<g>
</g>
<g>
</g>
<g>
</g>
</svg>
