<svg height="514pt" viewBox="-8 0 514 514.84775" width="514pt" xmlns="http://www.w3.org/2000/svg"><path d="m363.609375 514.847656h-257.425781v-57.984375l-93.523438-112.238281c-18.503906-22.234375-15.703125-55.601562 6.242188-74.410156 9.636718-8.253906 21.914062-12.789063 34.574218-12.789063 15.832032 0 30.730469 6.980469 40.867188 19.113281l12.789062 15.347657-41.265624-175.707031c-6.148438-26.179688 10.085937-52.804688 36.183593-59.320313 3.941407-1 7.996094-1.496094 12.035157-1.496094 22.75 0 42.472656 15.429688 47.976562 37.503907l24.550781 98.207031v-142.808594c0-26.609375 21.65625-48.265625 48.265625-48.265625 26.613282 0 48.269532 21.65625 48.269532 48.265625v142.824219l24.566406-98.242188c5.519531-22.070312 25.246094-37.484375 47.976562-37.484375 4.039063 0 8.09375.496094 12.035156 1.496094 26.097657 6.484375 42.332032 33.125 36.183594 59.335937l-36.390625 154.613282 43.710938-65.5625c8.835937-13.257813 23.652343-21.171875 39.597656-21.171875 11.085937 0 21.878906 3.910156 30.421875 11.019531 18.40625 15.335938 22.511719 42.089844 9.558594 62.25l-127.214844 197.894531v59.609375zm0 0" fill="#ecce93"/><g fill="#fff"><path d="m186.628906 418.3125h32.179688v32.179688h-32.179688zm0 0"/><path d="m250.984375 418.3125h32.179687v32.179688h-32.179687zm0 0"/></g></svg>